<svg width="85" height="26" viewBox="0 0 85 26" fill="none" xmlns="http://www.w3.org/2000/svg">
<rect width="85.001" height="26" rx="2" fill="#30472A"/>
<g clip-path="url(#clip0)">
<path d="M23.8658 8.76946C23.6856 8.58921 23.3933 8.58921 23.213 8.76946L15.7309 16.2516L12.788 13.3086C12.6077 13.1284 12.3155 13.1284 12.1352 13.3086C11.9549 13.4889 11.9549 13.7811 12.1352 13.9614L15.4046 17.2308C15.5847 17.411 15.8771 17.411 16.0573 17.2308L23.8658 9.42223C24.046 9.24196 24.046 8.94971 23.8658 8.76946Z" fill="#52B03B"/>
</g>
<path d="M35.929 15.296H32.437L31.837 17H30.409L33.397 8.648H34.981L37.969 17H36.529L35.929 15.296ZM35.545 14.18L34.189 10.304L32.821 14.18H35.545ZM38.8122 13.688C38.8122 13.008 38.9482 12.412 39.2202 11.9C39.5002 11.38 39.8842 10.98 40.3722 10.7C40.8602 10.42 41.4202 10.28 42.0522 10.28C42.8522 10.28 43.5122 10.472 44.0322 10.856C44.5602 11.232 44.9162 11.772 45.1002 12.476H43.6242C43.5042 12.148 43.3122 11.892 43.0482 11.708C42.7842 11.524 42.4522 11.432 42.0522 11.432C41.4922 11.432 41.0442 11.632 40.7082 12.032C40.3802 12.424 40.2162 12.976 40.2162 13.688C40.2162 14.4 40.3802 14.956 40.7082 15.356C41.0442 15.756 41.4922 15.956 42.0522 15.956C42.8442 15.956 43.3682 15.608 43.6242 14.912H45.1002C44.9082 15.584 44.5482 16.12 44.0202 16.52C43.4922 16.912 42.8362 17.108 42.0522 17.108C41.4202 17.108 40.8602 16.968 40.3722 16.688C39.8842 16.4 39.5002 16 39.2202 15.488C38.9482 14.968 38.8122 14.368 38.8122 13.688ZM46.0075 13.688C46.0075 13.008 46.1435 12.412 46.4155 11.9C46.6955 11.38 47.0795 10.98 47.5675 10.7C48.0555 10.42 48.6155 10.28 49.2475 10.28C50.0475 10.28 50.7075 10.472 51.2275 10.856C51.7555 11.232 52.1115 11.772 52.2955 12.476H50.8195C50.6995 12.148 50.5075 11.892 50.2435 11.708C49.9795 11.524 49.6475 11.432 49.2475 11.432C48.6875 11.432 48.2395 11.632 47.9035 12.032C47.5755 12.424 47.4115 12.976 47.4115 13.688C47.4115 14.4 47.5755 14.956 47.9035 15.356C48.2395 15.756 48.6875 15.956 49.2475 15.956C50.0395 15.956 50.5635 15.608 50.8195 14.912H52.2955C52.1035 15.584 51.7435 16.12 51.2155 16.52C50.6875 16.912 50.0315 17.108 49.2475 17.108C48.6155 17.108 48.0555 16.968 47.5675 16.688C47.0795 16.4 46.6955 16 46.4155 15.488C46.1435 14.968 46.0075 14.368 46.0075 13.688ZM59.7188 13.532C59.7188 13.78 59.7028 14.004 59.6708 14.204H54.6188C54.6588 14.732 54.8548 15.156 55.2068 15.476C55.5588 15.796 55.9908 15.956 56.5028 15.956C57.2388 15.956 57.7588 15.648 58.0628 15.032H59.5388C59.3388 15.64 58.9748 16.14 58.4468 16.532C57.9268 16.916 57.2788 17.108 56.5028 17.108C55.8708 17.108 55.3028 16.968 54.7988 16.688C54.3028 16.4 53.9108 16 53.6228 15.488C53.3428 14.968 53.2028 14.368 53.2028 13.688C53.2028 13.008 53.3388 12.412 53.6108 11.9C53.8908 11.38 54.2788 10.98 54.7748 10.7C55.2788 10.42 55.8548 10.28 56.5028 10.28C57.1268 10.28 57.6828 10.416 58.1708 10.688C58.6588 10.96 59.0388 11.344 59.3108 11.84C59.5828 12.328 59.7188 12.892 59.7188 13.532ZM58.2908 13.1C58.2828 12.596 58.1028 12.192 57.7508 11.888C57.3988 11.584 56.9628 11.432 56.4428 11.432C55.9708 11.432 55.5668 11.584 55.2308 11.888C54.8948 12.184 54.6948 12.588 54.6308 13.1H58.2908ZM62.4331 11.36C62.6651 11.056 62.9811 10.8 63.3811 10.592C63.7811 10.384 64.2331 10.28 64.7371 10.28C65.3131 10.28 65.8371 10.424 66.3091 10.712C66.7891 10.992 67.1651 11.388 67.4371 11.9C67.7091 12.412 67.8451 13 67.8451 13.664C67.8451 14.328 67.7091 14.924 67.4371 15.452C67.1651 15.972 66.7891 16.38 66.3091 16.676C65.8371 16.964 65.3131 17.108 64.7371 17.108C64.2331 17.108 63.7851 17.008 63.3931 16.808C63.0011 16.6 62.6811 16.344 62.4331 16.04V20.144H61.0651V10.388H62.4331V11.36ZM66.4531 13.664C66.4531 13.208 66.3571 12.816 66.1651 12.488C65.9811 12.152 65.7331 11.9 65.4211 11.732C65.1171 11.556 64.7891 11.468 64.4371 11.468C64.0931 11.468 63.7651 11.556 63.4531 11.732C63.1491 11.908 62.9011 12.164 62.7091 12.5C62.5251 12.836 62.4331 13.232 62.4331 13.688C62.4331 14.144 62.5251 14.544 62.7091 14.888C62.9011 15.224 63.1491 15.48 63.4531 15.656C63.7651 15.832 64.0931 15.92 64.4371 15.92C64.7891 15.92 65.1171 15.832 65.4211 15.656C65.7331 15.472 65.9811 15.208 66.1651 14.864C66.3571 14.52 66.4531 14.12 66.4531 13.664ZM70.7939 11.504V15.164C70.7939 15.412 70.8499 15.592 70.9619 15.704C71.0819 15.808 71.2819 15.86 71.5619 15.86H72.4019V17H71.3219C70.7059 17 70.2339 16.856 69.9059 16.568C69.5779 16.28 69.4139 15.812 69.4139 15.164V11.504H68.6339V10.388H69.4139V8.744H70.7939V10.388H72.4019V11.504H70.7939Z" fill="#52B03B"/>
<defs>
<clipPath id="clip0">
<rect width="12.001" height="12.001" fill="white" transform="translate(12 6.99951)"/>
</clipPath>
</defs>
</svg>
