<svg width="184" height="34" viewBox="0 0 184 34" fill="none" xmlns="http://www.w3.org/2000/svg">
<rect width="184" height="34" fill="#245FD3" fill-opacity="0.3"/>
<path d="M19.436 12.27L15.782 22H13.934L10.266 12.27H11.974L14.858 20.362L17.756 12.27H19.436ZM21.5827 13.264C21.2934 13.264 21.0507 13.166 20.8547 12.97C20.6587 12.774 20.5607 12.5313 20.5607 12.242C20.5607 11.9527 20.6587 11.71 20.8547 11.514C21.0507 11.318 21.2934 11.22 21.5827 11.22C21.8627 11.22 22.1007 11.318 22.2967 11.514C22.4927 11.71 22.5907 11.9527 22.5907 12.242C22.5907 12.5313 22.4927 12.774 22.2967 12.97C22.1007 13.166 21.8627 13.264 21.5827 13.264ZM22.3667 14.286V22H20.7707V14.286H22.3667ZM31.5321 17.954C31.5321 18.2433 31.5134 18.5047 31.4761 18.738H25.5821C25.6288 19.354 25.8574 19.8487 26.2681 20.222C26.6788 20.5953 27.1828 20.782 27.7801 20.782C28.6388 20.782 29.2454 20.4227 29.6001 19.704H31.3221C31.0888 20.4133 30.6641 20.9967 30.0481 21.454C29.4414 21.902 28.6854 22.126 27.7801 22.126C27.0428 22.126 26.3801 21.9627 25.7921 21.636C25.2134 21.3 24.7561 20.8333 24.4201 20.236C24.0934 19.6293 23.9301 18.9293 23.9301 18.136C23.9301 17.3427 24.0888 16.6473 24.4061 16.05C24.7328 15.4433 25.1854 14.9767 25.7641 14.65C26.3521 14.3233 27.0241 14.16 27.7801 14.16C28.5081 14.16 29.1568 14.3187 29.7261 14.636C30.2954 14.9533 30.7388 15.4013 31.0561 15.98C31.3734 16.5493 31.5321 17.2073 31.5321 17.954ZM29.8661 17.45C29.8568 16.862 29.6468 16.3907 29.2361 16.036C28.8254 15.6813 28.3168 15.504 27.7101 15.504C27.1594 15.504 26.6881 15.6813 26.2961 16.036C25.9041 16.3813 25.6708 16.8527 25.5961 17.45H29.8661ZM43.4627 14.286L41.0687 22H39.3887L37.8347 16.302L36.2807 22H34.6007L32.1927 14.286H33.8167L35.4267 20.488L37.0647 14.286H38.7307L40.2987 20.46L41.8947 14.286H43.4627ZM47.7602 17.114C47.7602 16.162 47.9795 15.308 48.4182 14.552C48.8662 13.796 49.4682 13.208 50.2242 12.788C50.9895 12.3587 51.8249 12.144 52.7302 12.144C53.7662 12.144 54.6855 12.4007 55.4882 12.914C56.3002 13.418 56.8882 14.1367 57.2522 15.07H55.3342C55.0822 14.5567 54.7322 14.174 54.2842 13.922C53.8362 13.67 53.3182 13.544 52.7302 13.544C52.0862 13.544 51.5122 13.6887 51.0082 13.978C50.5042 14.2673 50.1075 14.6827 49.8182 15.224C49.5382 15.7653 49.3982 16.3953 49.3982 17.114C49.3982 17.8327 49.5382 18.4627 49.8182 19.004C50.1075 19.5453 50.5042 19.9653 51.0082 20.264C51.5122 20.5533 52.0862 20.698 52.7302 20.698C53.3182 20.698 53.8362 20.572 54.2842 20.32C54.7322 20.068 55.0822 19.6853 55.3342 19.172H57.2522C56.8882 20.1053 56.3002 20.824 55.4882 21.328C54.6855 21.832 53.7662 22.084 52.7302 22.084C51.8155 22.084 50.9802 21.874 50.2242 21.454C49.4682 21.0247 48.8662 20.432 48.4182 19.676C47.9795 18.92 47.7602 18.066 47.7602 17.114ZM62.4663 22.126C61.7383 22.126 61.0803 21.9627 60.4923 21.636C59.9043 21.3 59.4423 20.8333 59.1063 20.236C58.7703 19.6293 58.6023 18.9293 58.6023 18.136C58.6023 17.352 58.775 16.6567 59.1203 16.05C59.4656 15.4433 59.937 14.9767 60.5343 14.65C61.1316 14.3233 61.799 14.16 62.5363 14.16C63.2736 14.16 63.941 14.3233 64.5383 14.65C65.1356 14.9767 65.607 15.4433 65.9523 16.05C66.2976 16.6567 66.4703 17.352 66.4703 18.136C66.4703 18.92 66.293 19.6153 65.9383 20.222C65.5836 20.8287 65.0983 21.3 64.4823 21.636C63.8756 21.9627 63.2036 22.126 62.4663 22.126ZM62.4663 20.74C62.877 20.74 63.2596 20.642 63.6143 20.446C63.9783 20.25 64.2723 19.956 64.4963 19.564C64.7203 19.172 64.8323 18.696 64.8323 18.136C64.8323 17.576 64.725 17.1047 64.5103 16.722C64.2956 16.33 64.011 16.036 63.6563 15.84C63.3016 15.644 62.919 15.546 62.5083 15.546C62.0976 15.546 61.715 15.644 61.3603 15.84C61.015 16.036 60.7396 16.33 60.5343 16.722C60.329 17.1047 60.2263 17.576 60.2263 18.136C60.2263 18.9667 60.4363 19.6107 60.8563 20.068C61.2856 20.516 61.8223 20.74 62.4663 20.74ZM77.386 14.16C77.9927 14.16 78.534 14.286 79.01 14.538C79.4954 14.79 79.8734 15.1633 80.144 15.658C80.424 16.1527 80.564 16.75 80.564 17.45V22H78.982V17.688C78.982 16.9973 78.8094 16.47 78.464 16.106C78.1187 15.7327 77.6474 15.546 77.05 15.546C76.4527 15.546 75.9767 15.7327 75.622 16.106C75.2767 16.47 75.104 16.9973 75.104 17.688V22H73.522V17.688C73.522 16.9973 73.3494 16.47 73.004 16.106C72.6587 15.7327 72.1874 15.546 71.59 15.546C70.9927 15.546 70.5167 15.7327 70.162 16.106C69.8167 16.47 69.644 16.9973 69.644 17.688V22H68.048V14.286H69.644V15.168C69.9054 14.8507 70.2367 14.6033 70.638 14.426C71.0394 14.2487 71.4687 14.16 71.926 14.16C72.542 14.16 73.0927 14.2907 73.578 14.552C74.0634 14.8133 74.4367 15.1913 74.698 15.686C74.9314 15.2193 75.2954 14.8507 75.79 14.58C76.2847 14.3 76.8167 14.16 77.386 14.16ZM84.1909 15.42C84.4616 15.0653 84.8303 14.7667 85.2969 14.524C85.7636 14.2813 86.2909 14.16 86.8789 14.16C87.5509 14.16 88.1623 14.328 88.7129 14.664C89.2729 14.9907 89.7116 15.4527 90.0289 16.05C90.3463 16.6473 90.5049 17.3333 90.5049 18.108C90.5049 18.8827 90.3463 19.578 90.0289 20.194C89.7116 20.8007 89.2729 21.2767 88.7129 21.622C88.1623 21.958 87.5509 22.126 86.8789 22.126C86.2909 22.126 85.7683 22.0093 85.3109 21.776C84.8536 21.5333 84.4803 21.2347 84.1909 20.88V25.668H82.5949V14.286H84.1909V15.42ZM88.8809 18.108C88.8809 17.576 88.7689 17.1187 88.5449 16.736C88.3303 16.344 88.0409 16.05 87.6769 15.854C87.3223 15.6487 86.9396 15.546 86.5289 15.546C86.1276 15.546 85.7449 15.6487 85.3809 15.854C85.0263 16.0593 84.7369 16.358 84.5129 16.75C84.2983 17.142 84.1909 17.604 84.1909 18.136C84.1909 18.668 84.2983 19.1347 84.5129 19.536C84.7369 19.928 85.0263 20.2267 85.3809 20.432C85.7449 20.6373 86.1276 20.74 86.5289 20.74C86.9396 20.74 87.3223 20.6373 87.6769 20.432C88.0409 20.2173 88.3303 19.9093 88.5449 19.508C88.7689 19.1067 88.8809 18.64 88.8809 18.108ZM93.6792 11.64V22H92.0832V11.64H93.6792ZM95.2426 18.108C95.2426 17.3333 95.4013 16.6473 95.7186 16.05C96.0453 15.4527 96.4839 14.9907 97.0346 14.664C97.5946 14.328 98.2106 14.16 98.8826 14.16C99.4893 14.16 100.017 14.2813 100.465 14.524C100.922 14.7573 101.286 15.0513 101.557 15.406V14.286H103.167V22H101.557V20.852C101.286 21.216 100.917 21.5193 100.451 21.762C99.9839 22.0047 99.4519 22.126 98.8546 22.126C98.1919 22.126 97.5853 21.958 97.0346 21.622C96.4839 21.2767 96.0453 20.8007 95.7186 20.194C95.4013 19.578 95.2426 18.8827 95.2426 18.108ZM101.557 18.136C101.557 17.604 101.445 17.142 101.221 16.75C101.006 16.358 100.721 16.0593 100.367 15.854C100.012 15.6487 99.6293 15.546 99.2186 15.546C98.8079 15.546 98.4253 15.6487 98.0706 15.854C97.7159 16.05 97.4266 16.344 97.2026 16.736C96.9879 17.1187 96.8806 17.576 96.8806 18.108C96.8806 18.64 96.9879 19.1067 97.2026 19.508C97.4266 19.9093 97.7159 20.2173 98.0706 20.432C98.4346 20.6373 98.8173 20.74 99.2186 20.74C99.6293 20.74 100.012 20.6373 100.367 20.432C100.721 20.2267 101.006 19.928 101.221 19.536C101.445 19.1347 101.557 18.668 101.557 18.136ZM106.075 13.264C105.786 13.264 105.543 13.166 105.347 12.97C105.151 12.774 105.053 12.5313 105.053 12.242C105.053 11.9527 105.151 11.71 105.347 11.514C105.543 11.318 105.786 11.22 106.075 11.22C106.355 11.22 106.593 11.318 106.789 11.514C106.985 11.71 107.083 11.9527 107.083 12.242C107.083 12.5313 106.985 12.774 106.789 12.97C106.593 13.166 106.355 13.264 106.075 13.264ZM106.859 14.286V22H105.263V14.286H106.859ZM112.846 14.16C113.453 14.16 113.994 14.286 114.47 14.538C114.956 14.79 115.334 15.1633 115.604 15.658C115.875 16.1527 116.01 16.75 116.01 17.45V22H114.428V17.688C114.428 16.9973 114.256 16.47 113.91 16.106C113.565 15.7327 113.094 15.546 112.496 15.546C111.899 15.546 111.423 15.7327 111.068 16.106C110.723 16.47 110.55 16.9973 110.55 17.688V22H108.954V14.286H110.55V15.168C110.812 14.8507 111.143 14.6033 111.544 14.426C111.955 14.2487 112.389 14.16 112.846 14.16ZM119.908 15.588V19.858C119.908 20.1473 119.973 20.3573 120.104 20.488C120.244 20.6093 120.477 20.67 120.804 20.67H121.784V22H120.524C119.805 22 119.255 21.832 118.872 21.496C118.489 21.16 118.298 20.614 118.298 19.858V15.588H117.388V14.286H118.298V12.368H119.908V14.286H121.784V15.588H119.908ZM130.07 12.27C131.106 12.27 132.011 12.4707 132.786 12.872C133.57 13.264 134.172 13.8333 134.592 14.58C135.021 15.3173 135.236 16.1807 135.236 17.17C135.236 18.1593 135.021 19.018 134.592 19.746C134.172 20.474 133.57 21.034 132.786 21.426C132.011 21.8087 131.106 22 130.07 22H126.892V12.27H130.07ZM130.07 20.698C131.208 20.698 132.081 20.39 132.688 19.774C133.294 19.158 133.598 18.29 133.598 17.17C133.598 16.0407 133.294 15.1587 132.688 14.524C132.081 13.8893 131.208 13.572 130.07 13.572H128.488V20.698H130.07ZM143.888 17.954C143.888 18.2433 143.869 18.5047 143.832 18.738H137.938C137.984 19.354 138.213 19.8487 138.624 20.222C139.034 20.5953 139.538 20.782 140.136 20.782C140.994 20.782 141.601 20.4227 141.956 19.704H143.678C143.444 20.4133 143.02 20.9967 142.404 21.454C141.797 21.902 141.041 22.126 140.136 22.126C139.398 22.126 138.736 21.9627 138.148 21.636C137.569 21.3 137.112 20.8333 136.776 20.236C136.449 19.6293 136.286 18.9293 136.286 18.136C136.286 17.3427 136.444 16.6473 136.762 16.05C137.088 15.4433 137.541 14.9767 138.12 14.65C138.708 14.3233 139.38 14.16 140.136 14.16C140.864 14.16 141.512 14.3187 142.082 14.636C142.651 14.9533 143.094 15.4013 143.412 15.98C143.729 16.5493 143.888 17.2073 143.888 17.954ZM142.222 17.45C142.212 16.862 142.002 16.3907 141.592 16.036C141.181 15.6813 140.672 15.504 140.066 15.504C139.515 15.504 139.044 15.6813 138.652 16.036C138.26 16.3813 138.026 16.8527 137.952 17.45H142.222ZM147.32 15.588V19.858C147.32 20.1473 147.386 20.3573 147.516 20.488C147.656 20.6093 147.89 20.67 148.216 20.67H149.196V22H147.936C147.218 22 146.667 21.832 146.284 21.496C145.902 21.16 145.71 20.614 145.71 19.858V15.588H144.8V14.286H145.71V12.368H147.32V14.286H149.196V15.588H147.32ZM150.135 18.108C150.135 17.3333 150.294 16.6473 150.611 16.05C150.938 15.4527 151.377 14.9907 151.927 14.664C152.487 14.328 153.103 14.16 153.775 14.16C154.382 14.16 154.909 14.2813 155.357 14.524C155.815 14.7573 156.179 15.0513 156.449 15.406V14.286H158.059V22H156.449V20.852C156.179 21.216 155.81 21.5193 155.343 21.762C154.877 22.0047 154.345 22.126 153.747 22.126C153.085 22.126 152.478 21.958 151.927 21.622C151.377 21.2767 150.938 20.8007 150.611 20.194C150.294 19.578 150.135 18.8827 150.135 18.108ZM156.449 18.136C156.449 17.604 156.337 17.142 156.113 16.75C155.899 16.358 155.614 16.0593 155.259 15.854C154.905 15.6487 154.522 15.546 154.111 15.546C153.701 15.546 153.318 15.6487 152.963 15.854C152.609 16.05 152.319 16.344 152.095 16.736C151.881 17.1187 151.773 17.576 151.773 18.108C151.773 18.64 151.881 19.1067 152.095 19.508C152.319 19.9093 152.609 20.2173 152.963 20.432C153.327 20.6373 153.71 20.74 154.111 20.74C154.522 20.74 154.905 20.6373 155.259 20.432C155.614 20.2267 155.899 19.928 156.113 19.536C156.337 19.1347 156.449 18.668 156.449 18.136ZM160.967 13.264C160.678 13.264 160.435 13.166 160.239 12.97C160.043 12.774 159.945 12.5313 159.945 12.242C159.945 11.9527 160.043 11.71 160.239 11.514C160.435 11.318 160.678 11.22 160.967 11.22C161.247 11.22 161.485 11.318 161.681 11.514C161.877 11.71 161.975 11.9527 161.975 12.242C161.975 12.5313 161.877 12.774 161.681 12.97C161.485 13.166 161.247 13.264 160.967 13.264ZM161.751 14.286V22H160.155V14.286H161.751ZM165.443 11.64V22H163.847V11.64H165.443ZM170.338 22.126C169.732 22.126 169.186 22.0187 168.7 21.804C168.224 21.58 167.846 21.2813 167.566 20.908C167.286 20.5253 167.137 20.1007 167.118 19.634H168.77C168.798 19.9607 168.952 20.236 169.232 20.46C169.522 20.6747 169.881 20.782 170.31 20.782C170.758 20.782 171.104 20.698 171.346 20.53C171.598 20.3527 171.724 20.1287 171.724 19.858C171.724 19.5687 171.584 19.354 171.304 19.214C171.034 19.074 170.6 18.92 170.002 18.752C169.424 18.5933 168.952 18.4393 168.588 18.29C168.224 18.1407 167.907 17.912 167.636 17.604C167.375 17.296 167.244 16.89 167.244 16.386C167.244 15.9753 167.366 15.602 167.608 15.266C167.851 14.9207 168.196 14.65 168.644 14.454C169.102 14.258 169.624 14.16 170.212 14.16C171.09 14.16 171.794 14.384 172.326 14.832C172.868 15.2707 173.157 15.8727 173.194 16.638H171.598C171.57 16.2927 171.43 16.0173 171.178 15.812C170.926 15.6067 170.586 15.504 170.156 15.504C169.736 15.504 169.414 15.5833 169.19 15.742C168.966 15.9007 168.854 16.1107 168.854 16.372C168.854 16.5773 168.929 16.75 169.078 16.89C169.228 17.03 169.41 17.142 169.624 17.226C169.839 17.3007 170.156 17.3987 170.576 17.52C171.136 17.6693 171.594 17.8233 171.948 17.982C172.312 18.1313 172.625 18.3553 172.886 18.654C173.148 18.9527 173.283 19.3493 173.292 19.844C173.292 20.2827 173.171 20.6747 172.928 21.02C172.686 21.3653 172.34 21.636 171.892 21.832C171.454 22.028 170.936 22.126 170.338 22.126Z" fill="#245FD3"/>
</svg>
