<svg width="83" height="26" viewBox="0 0 83 26" fill="none" xmlns="http://www.w3.org/2000/svg">
<rect width="83" height="26" rx="2" fill="#57201E"/>
<g clip-path="url(#clip0)">
<path d="M15.5583 13.0007L12.0918 9.53422C11.9697 9.41217 11.9697 9.2143 12.0918 9.09227C12.2138 8.97024 12.4117 8.97022 12.5337 9.09227L16.0002 12.5588L19.4668 9.09227C19.5888 8.97022 19.7867 8.97022 19.9087 9.09227C20.0307 9.21431 20.0308 9.41219 19.9087 9.53422L16.4422 13.0007L19.9087 16.4673C20.0308 16.5893 20.0308 16.7872 19.9087 16.9092C19.8477 16.9702 19.7677 17.0007 19.6877 17.0007C19.6077 17.0007 19.5278 16.9702 19.4667 16.9092L16.0002 13.4427L12.5337 16.9092C12.4727 16.9702 12.3927 17.0007 12.3128 17.0007C12.2328 17.0007 12.1528 16.9702 12.0918 16.9092C11.9697 16.7872 11.9697 16.5893 12.0918 16.4673L15.5583 13.0007Z" fill="#ED483A"/>
</g>
<path d="M34.1 12.752C34.1 13.608 33.924 14.356 33.572 14.996C33.228 15.628 32.72 16.12 32.048 16.472C31.384 16.824 30.588 17 29.66 17H26.828V8.528H29.66C30.588 8.528 31.384 8.704 32.048 9.056C32.72 9.4 33.228 9.888 33.572 10.52C33.924 11.152 34.1 11.896 34.1 12.752ZM29.552 15.764C30.568 15.764 31.348 15.5 31.892 14.972C32.436 14.444 32.708 13.704 32.708 12.752C32.708 11.8 32.436 11.06 31.892 10.532C31.348 10.004 30.568 9.74 29.552 9.74H28.196V15.764H29.552ZM41.6204 13.376C41.6204 13.6 41.6044 13.796 41.5724 13.964H36.4844C36.5084 14.644 36.6964 15.148 37.0484 15.476C37.4004 15.804 37.8364 15.968 38.3564 15.968C38.8124 15.968 39.1964 15.852 39.5084 15.62C39.8284 15.388 40.0244 15.08 40.0964 14.696H41.5604C41.4724 15.16 41.2884 15.572 41.0084 15.932C40.7284 16.292 40.3644 16.576 39.9164 16.784C39.4684 16.984 38.9684 17.084 38.4164 17.084C37.7764 17.084 37.2084 16.948 36.7124 16.676C36.2244 16.404 35.8404 16.012 35.5604 15.5C35.2804 14.988 35.1404 14.384 35.1404 13.688C35.1404 13 35.2804 12.4 35.5604 11.888C35.8404 11.376 36.2244 10.984 36.7124 10.712C37.2084 10.44 37.7764 10.304 38.4164 10.304C39.0644 10.304 39.6284 10.44 40.1084 10.712C40.5964 10.976 40.9684 11.344 41.2244 11.816C41.4884 12.28 41.6204 12.8 41.6204 13.376ZM40.2404 13.34C40.2564 12.908 40.1804 12.548 40.0124 12.26C39.8524 11.964 39.6284 11.748 39.3404 11.612C39.0604 11.468 38.7524 11.396 38.4164 11.396C37.8804 11.396 37.4324 11.56 37.0724 11.888C36.7124 12.216 36.5164 12.7 36.4844 13.34H40.2404ZM45.8813 10.304C46.7373 10.304 47.4453 10.532 48.0053 10.988C48.5653 11.436 48.9133 12.048 49.0493 12.824H47.5973C47.5173 12.408 47.3213 12.084 47.0093 11.852C46.7053 11.612 46.3213 11.492 45.8573 11.492C45.3293 11.492 44.8893 11.68 44.5373 12.056C44.1853 12.424 44.0093 12.968 44.0093 13.688C44.0093 14.408 44.1853 14.956 44.5373 15.332C44.8893 15.708 45.3293 15.896 45.8573 15.896C46.3213 15.896 46.7053 15.776 47.0093 15.536C47.3213 15.296 47.5173 14.968 47.5973 14.552H49.0493C48.9133 15.328 48.5653 15.944 48.0053 16.4C47.4453 16.856 46.7373 17.084 45.8813 17.084C45.2413 17.084 44.6733 16.948 44.1773 16.676C43.6893 16.404 43.3053 16.012 43.0253 15.5C42.7453 14.988 42.6053 14.384 42.6053 13.688C42.6053 13 42.7453 12.4 43.0253 11.888C43.3053 11.376 43.6893 10.984 44.1773 10.712C44.6733 10.44 45.2413 10.304 45.8813 10.304ZM51.739 8.12V17H50.371V8.12H51.739ZM53.2024 8.468C53.2024 8.236 53.2824 8.044 53.4424 7.892C53.6024 7.74 53.8144 7.664 54.0784 7.664C54.3424 7.664 54.5544 7.74 54.7144 7.892C54.8824 8.044 54.9664 8.236 54.9664 8.468C54.9664 8.7 54.8824 8.888 54.7144 9.032C54.5544 9.176 54.3424 9.248 54.0784 9.248C53.8144 9.248 53.6024 9.176 53.4424 9.032C53.2824 8.888 53.2024 8.7 53.2024 8.468ZM54.7624 10.388V17H53.3944V10.388H54.7624ZM60.1138 10.28C60.8818 10.28 61.4978 10.528 61.9618 11.024C62.4258 11.52 62.6578 12.228 62.6578 13.148V17H61.2898V13.292C61.2898 12.7 61.1378 12.244 60.8338 11.924C60.5298 11.596 60.1138 11.432 59.5858 11.432C59.0418 11.432 58.6058 11.608 58.2778 11.96C57.9498 12.304 57.7858 12.812 57.7858 13.484V17H56.4178V10.388H57.7858V11.84C57.9618 11.344 58.2578 10.96 58.6738 10.688C59.0898 10.416 59.5698 10.28 60.1138 10.28ZM70.4017 13.376C70.4017 13.6 70.3857 13.796 70.3537 13.964H65.2657C65.2897 14.644 65.4777 15.148 65.8297 15.476C66.1817 15.804 66.6177 15.968 67.1377 15.968C67.5937 15.968 67.9777 15.852 68.2897 15.62C68.6097 15.388 68.8057 15.08 68.8777 14.696H70.3417C70.2537 15.16 70.0697 15.572 69.7897 15.932C69.5097 16.292 69.1457 16.576 68.6977 16.784C68.2497 16.984 67.7497 17.084 67.1977 17.084C66.5577 17.084 65.9897 16.948 65.4937 16.676C65.0057 16.404 64.6217 16.012 64.3417 15.5C64.0617 14.988 63.9217 14.384 63.9217 13.688C63.9217 13 64.0617 12.4 64.3417 11.888C64.6217 11.376 65.0057 10.984 65.4937 10.712C65.9897 10.44 66.5577 10.304 67.1977 10.304C67.8457 10.304 68.4097 10.44 68.8897 10.712C69.3777 10.976 69.7497 11.344 70.0057 11.816C70.2697 12.28 70.4017 12.8 70.4017 13.376ZM69.0217 13.34C69.0377 12.908 68.9617 12.548 68.7937 12.26C68.6337 11.964 68.4097 11.748 68.1217 11.612C67.8417 11.468 67.5337 11.396 67.1977 11.396C66.6617 11.396 66.2137 11.56 65.8537 11.888C65.4937 12.216 65.2977 12.7 65.2657 13.34H69.0217Z" fill="#C05249"/>
<defs>
<clipPath id="clip0">
<rect width="8" height="8" fill="white" transform="matrix(-1 0 0 1 20 9)"/>
</clipPath>
</defs>
</svg>
