<svg width="140" height="44" viewBox="0 0 140 44" fill="none" xmlns="http://www.w3.org/2000/svg">
<rect x="0.5" y="0.5" width="139" height="43" rx="3.5" stroke="#245FD3"/>
<path d="M18.9119 18.558V21.414H22.2719V22.716H18.9119V25.698H22.6919V27H17.3159V17.256H22.6919V18.558H18.9119ZM28.2417 23.094L30.7337 27H28.9277L27.2617 24.382L25.6937 27H24.0277L26.5197 23.206L24.0277 19.286H25.8337L27.4997 21.904L29.0677 19.286H30.7337L28.2417 23.094ZM33.0161 18.264C32.7267 18.264 32.4841 18.166 32.2881 17.97C32.0921 17.774 31.9941 17.5313 31.9941 17.242C31.9941 16.9527 32.0921 16.71 32.2881 16.514C32.4841 16.318 32.7267 16.22 33.0161 16.22C33.2961 16.22 33.5341 16.318 33.7301 16.514C33.9261 16.71 34.0241 16.9527 34.0241 17.242C34.0241 17.5313 33.9261 17.774 33.7301 17.97C33.5341 18.166 33.2961 18.264 33.0161 18.264ZM33.8001 19.286V27H32.2041V19.286H33.8001ZM38.0375 20.588V24.858C38.0375 25.1473 38.1028 25.3573 38.2335 25.488C38.3735 25.6093 38.6068 25.67 38.9335 25.67H39.9135V27H38.6535C37.9348 27 37.3841 26.832 37.0015 26.496C36.6188 26.16 36.4275 25.614 36.4275 24.858V20.588H35.5175V19.286H36.4275V17.368H38.0375V19.286H39.9135V20.588H38.0375ZM45.0492 22.114C45.0492 21.162 45.2685 20.308 45.7072 19.552C46.1552 18.796 46.7572 18.208 47.5132 17.788C48.2785 17.3587 49.1138 17.144 50.0192 17.144C51.0552 17.144 51.9745 17.4007 52.7772 17.914C53.5892 18.418 54.1772 19.1367 54.5412 20.07H52.6232C52.3712 19.5567 52.0212 19.174 51.5732 18.922C51.1252 18.67 50.6072 18.544 50.0192 18.544C49.3752 18.544 48.8012 18.6887 48.2972 18.978C47.7932 19.2673 47.3965 19.6827 47.1072 20.224C46.8272 20.7653 46.6872 21.3953 46.6872 22.114C46.6872 22.8327 46.8272 23.4627 47.1072 24.004C47.3965 24.5453 47.7932 24.9653 48.2972 25.264C48.8012 25.5533 49.3752 25.698 50.0192 25.698C50.6072 25.698 51.1252 25.572 51.5732 25.32C52.0212 25.068 52.3712 24.6853 52.6232 24.172H54.5412C54.1772 25.1053 53.5892 25.824 52.7772 26.328C51.9745 26.832 51.0552 27.084 50.0192 27.084C49.1045 27.084 48.2692 26.874 47.5132 26.454C46.7572 26.0247 46.1552 25.432 45.7072 24.676C45.2685 23.92 45.0492 23.066 45.0492 22.114ZM60.0353 27.126C59.3073 27.126 58.6493 26.9627 58.0613 26.636C57.4733 26.3 57.0113 25.8333 56.6753 25.236C56.3393 24.6293 56.1713 23.9293 56.1713 23.136C56.1713 22.352 56.344 21.6567 56.6893 21.05C57.0346 20.4433 57.506 19.9767 58.1033 19.65C58.7006 19.3233 59.368 19.16 60.1053 19.16C60.8426 19.16 61.51 19.3233 62.1073 19.65C62.7046 19.9767 63.176 20.4433 63.5213 21.05C63.8666 21.6567 64.0393 22.352 64.0393 23.136C64.0393 23.92 63.862 24.6153 63.5073 25.222C63.1526 25.8287 62.6673 26.3 62.0513 26.636C61.4446 26.9627 60.7726 27.126 60.0353 27.126ZM60.0353 25.74C60.446 25.74 60.8286 25.642 61.1833 25.446C61.5473 25.25 61.8413 24.956 62.0653 24.564C62.2893 24.172 62.4013 23.696 62.4013 23.136C62.4013 22.576 62.294 22.1047 62.0793 21.722C61.8646 21.33 61.58 21.036 61.2253 20.84C60.8706 20.644 60.488 20.546 60.0773 20.546C59.6666 20.546 59.284 20.644 58.9293 20.84C58.584 21.036 58.3086 21.33 58.1033 21.722C57.898 22.1047 57.7953 22.576 57.7953 23.136C57.7953 23.9667 58.0053 24.6107 58.4253 25.068C58.8546 25.516 59.3913 25.74 60.0353 25.74ZM75.235 19.16C75.8417 19.16 76.383 19.286 76.859 19.538C77.3444 19.79 77.7224 20.1633 77.993 20.658C78.273 21.1527 78.413 21.75 78.413 22.45V27H76.831V22.688C76.831 21.9973 76.6584 21.47 76.313 21.106C75.9677 20.7327 75.4964 20.546 74.899 20.546C74.3017 20.546 73.8257 20.7327 73.471 21.106C73.1257 21.47 72.953 21.9973 72.953 22.688V27H71.371V22.688C71.371 21.9973 71.1984 21.47 70.853 21.106C70.5077 20.7327 70.0364 20.546 69.439 20.546C68.8417 20.546 68.3657 20.7327 68.011 21.106C67.6657 21.47 67.493 21.9973 67.493 22.688V27H65.897V19.286H67.493V20.168C67.7544 19.8507 68.0857 19.6033 68.487 19.426C68.8884 19.2487 69.3177 19.16 69.775 19.16C70.391 19.16 70.9417 19.2907 71.427 19.552C71.9124 19.8133 72.2857 20.1913 72.547 20.686C72.7804 20.2193 73.1444 19.8507 73.639 19.58C74.1337 19.3 74.6657 19.16 75.235 19.16ZM82.3199 20.42C82.5906 20.0653 82.9592 19.7667 83.4259 19.524C83.8926 19.2813 84.4199 19.16 85.0079 19.16C85.6799 19.16 86.2912 19.328 86.8419 19.664C87.4019 19.9907 87.8406 20.4527 88.1579 21.05C88.4752 21.6473 88.6339 22.3333 88.6339 23.108C88.6339 23.8827 88.4752 24.578 88.1579 25.194C87.8406 25.8007 87.4019 26.2767 86.8419 26.622C86.2912 26.958 85.6799 27.126 85.0079 27.126C84.4199 27.126 83.8972 27.0093 83.4399 26.776C82.9826 26.5333 82.6092 26.2347 82.3199 25.88V30.668H80.7239V19.286H82.3199V20.42ZM87.0099 23.108C87.0099 22.576 86.8979 22.1187 86.6739 21.736C86.4592 21.344 86.1699 21.05 85.8059 20.854C85.4512 20.6487 85.0686 20.546 84.6579 20.546C84.2566 20.546 83.8739 20.6487 83.5099 20.854C83.1552 21.0593 82.8659 21.358 82.6419 21.75C82.4272 22.142 82.3199 22.604 82.3199 23.136C82.3199 23.668 82.4272 24.1347 82.6419 24.536C82.8659 24.928 83.1552 25.2267 83.5099 25.432C83.8739 25.6373 84.2566 25.74 84.6579 25.74C85.0686 25.74 85.4512 25.6373 85.8059 25.432C86.1699 25.2173 86.4592 24.9093 86.6739 24.508C86.8979 24.1067 87.0099 23.64 87.0099 23.108ZM92.0882 16.64V27H90.4922V16.64H92.0882ZM93.9316 23.108C93.9316 22.3333 94.0903 21.6473 94.4076 21.05C94.7343 20.4527 95.1729 19.9907 95.7236 19.664C96.2836 19.328 96.8996 19.16 97.5716 19.16C98.1783 19.16 98.7056 19.2813 99.1536 19.524C99.6109 19.7573 99.9749 20.0513 100.246 20.406V19.286H101.856V27H100.246V25.852C99.9749 26.216 99.6063 26.5193 99.1396 26.762C98.6729 27.0047 98.1409 27.126 97.5436 27.126C96.8809 27.126 96.2743 26.958 95.7236 26.622C95.1729 26.2767 94.7343 25.8007 94.4076 25.194C94.0903 24.578 93.9316 23.8827 93.9316 23.108ZM100.246 23.136C100.246 22.604 100.134 22.142 99.9096 21.75C99.6949 21.358 99.4103 21.0593 99.0556 20.854C98.7009 20.6487 98.3183 20.546 97.9076 20.546C97.4969 20.546 97.1143 20.6487 96.7596 20.854C96.4049 21.05 96.1156 21.344 95.8916 21.736C95.6769 22.1187 95.5696 22.576 95.5696 23.108C95.5696 23.64 95.6769 24.1067 95.8916 24.508C96.1156 24.9093 96.4049 25.2173 96.7596 25.432C97.1236 25.6373 97.5063 25.74 97.9076 25.74C98.3183 25.74 98.7009 25.6373 99.0556 25.432C99.4103 25.2267 99.6949 24.928 99.9096 24.536C100.134 24.1347 100.246 23.668 100.246 23.136ZM105.044 18.264C104.755 18.264 104.512 18.166 104.316 17.97C104.12 17.774 104.022 17.5313 104.022 17.242C104.022 16.9527 104.12 16.71 104.316 16.514C104.512 16.318 104.755 16.22 105.044 16.22C105.324 16.22 105.562 16.318 105.758 16.514C105.954 16.71 106.052 16.9527 106.052 17.242C106.052 17.5313 105.954 17.774 105.758 17.97C105.562 18.166 105.324 18.264 105.044 18.264ZM105.828 19.286V27H104.232V19.286H105.828ZM112.095 19.16C112.702 19.16 113.243 19.286 113.719 19.538C114.205 19.79 114.583 20.1633 114.853 20.658C115.124 21.1527 115.259 21.75 115.259 22.45V27H113.677V22.688C113.677 21.9973 113.505 21.47 113.159 21.106C112.814 20.7327 112.343 20.546 111.745 20.546C111.148 20.546 110.672 20.7327 110.317 21.106C109.972 21.47 109.799 21.9973 109.799 22.688V27H108.203V19.286H109.799V20.168C110.061 19.8507 110.392 19.6033 110.793 19.426C111.204 19.2487 111.638 19.16 112.095 19.16ZM119.437 20.588V24.858C119.437 25.1473 119.502 25.3573 119.633 25.488C119.773 25.6093 120.006 25.67 120.333 25.67H121.313V27H120.053C119.334 27 118.784 26.832 118.401 26.496C118.018 26.16 117.827 25.614 117.827 24.858V20.588H116.917V19.286H117.827V17.368H119.437V19.286H121.313V20.588H119.437Z" fill="#245FD3"/>
</svg>
