<svg width="215" height="50" viewBox="0 0 215 50" fill="none" xmlns="http://www.w3.org/2000/svg">
<rect width="215" height="50" rx="4" fill="#245FD3"/>
<path d="M39.2207 20.27V21.572H35.0907V24.442H38.3107V25.744H35.0907V30H33.4947V20.27H39.2207ZM41.5818 21.264C41.2924 21.264 41.0498 21.166 40.8538 20.97C40.6578 20.774 40.5598 20.5313 40.5598 20.242C40.5598 19.9527 40.6578 19.71 40.8538 19.514C41.0498 19.318 41.2924 19.22 41.5818 19.22C41.8618 19.22 42.0998 19.318 42.2958 19.514C42.4918 19.71 42.5898 19.9527 42.5898 20.242C42.5898 20.5313 42.4918 20.774 42.2958 20.97C42.0998 21.166 41.8618 21.264 41.5818 21.264ZM42.3658 22.286V30H40.7698V22.286H42.3658ZM46.1272 19.64V30H44.5312V19.64H46.1272ZM49.8886 19.64V30H48.2926V19.64H49.8886ZM55.2287 25.114C55.2287 24.162 55.448 23.308 55.8867 22.552C56.3347 21.796 56.9367 21.208 57.6927 20.788C58.458 20.3587 59.2934 20.144 60.1987 20.144C61.2347 20.144 62.154 20.4007 62.9567 20.914C63.7687 21.418 64.3567 22.1367 64.7207 23.07H62.8027C62.5507 22.5567 62.2007 22.174 61.7527 21.922C61.3047 21.67 60.7867 21.544 60.1987 21.544C59.5547 21.544 58.9807 21.6887 58.4767 21.978C57.9727 22.2673 57.576 22.6827 57.2867 23.224C57.0067 23.7653 56.8667 24.3953 56.8667 25.114C56.8667 25.8327 57.0067 26.4627 57.2867 27.004C57.576 27.5453 57.9727 27.9653 58.4767 28.264C58.9807 28.5533 59.5547 28.698 60.1987 28.698C60.7867 28.698 61.3047 28.572 61.7527 28.32C62.2007 28.068 62.5507 27.6853 62.8027 27.172H64.7207C64.3567 28.1053 63.7687 28.824 62.9567 29.328C62.154 29.832 61.2347 30.084 60.1987 30.084C59.284 30.084 58.4487 29.874 57.6927 29.454C56.9367 29.0247 56.3347 28.432 55.8867 27.676C55.448 26.92 55.2287 26.066 55.2287 25.114ZM70.0048 30.126C69.2768 30.126 68.6188 29.9627 68.0308 29.636C67.4428 29.3 66.9808 28.8333 66.6448 28.236C66.3088 27.6293 66.1408 26.9293 66.1408 26.136C66.1408 25.352 66.3135 24.6567 66.6588 24.05C67.0042 23.4433 67.4755 22.9767 68.0728 22.65C68.6702 22.3233 69.3375 22.16 70.0748 22.16C70.8122 22.16 71.4795 22.3233 72.0768 22.65C72.6742 22.9767 73.1455 23.4433 73.4908 24.05C73.8362 24.6567 74.0088 25.352 74.0088 26.136C74.0088 26.92 73.8315 27.6153 73.4768 28.222C73.1222 28.8287 72.6368 29.3 72.0208 29.636C71.4142 29.9627 70.7422 30.126 70.0048 30.126ZM70.0048 28.74C70.4155 28.74 70.7982 28.642 71.1528 28.446C71.5168 28.25 71.8108 27.956 72.0348 27.564C72.2588 27.172 72.3708 26.696 72.3708 26.136C72.3708 25.576 72.2635 25.1047 72.0488 24.722C71.8342 24.33 71.5495 24.036 71.1948 23.84C70.8402 23.644 70.4575 23.546 70.0468 23.546C69.6362 23.546 69.2535 23.644 68.8988 23.84C68.5535 24.036 68.2782 24.33 68.0728 24.722C67.8675 25.1047 67.7648 25.576 67.7648 26.136C67.7648 26.9667 67.9748 27.6107 68.3948 28.068C68.8242 28.516 69.3608 28.74 70.0048 28.74ZM84.9946 22.16C85.6012 22.16 86.1426 22.286 86.6186 22.538C87.1039 22.79 87.4819 23.1633 87.7526 23.658C88.0326 24.1527 88.1726 24.75 88.1726 25.45V30H86.5906V25.688C86.5906 24.9973 86.4179 24.47 86.0726 24.106C85.7272 23.7327 85.2559 23.546 84.6586 23.546C84.0612 23.546 83.5852 23.7327 83.2306 24.106C82.8852 24.47 82.7126 24.9973 82.7126 25.688V30H81.1306V25.688C81.1306 24.9973 80.9579 24.47 80.6126 24.106C80.2672 23.7327 79.7959 23.546 79.1986 23.546C78.6012 23.546 78.1252 23.7327 77.7706 24.106C77.4252 24.47 77.2526 24.9973 77.2526 25.688V30H75.6566V22.286H77.2526V23.168C77.5139 22.8507 77.8452 22.6033 78.2466 22.426C78.6479 22.2487 79.0772 22.16 79.5346 22.16C80.1506 22.16 80.7012 22.2907 81.1866 22.552C81.6719 22.8133 82.0452 23.1913 82.3066 23.686C82.5399 23.2193 82.9039 22.8507 83.3986 22.58C83.8932 22.3 84.4252 22.16 84.9946 22.16ZM91.8694 23.42C92.1401 23.0653 92.5088 22.7667 92.9754 22.524C93.4421 22.2813 93.9694 22.16 94.5574 22.16C95.2294 22.16 95.8408 22.328 96.3914 22.664C96.9514 22.9907 97.3901 23.4527 97.7074 24.05C98.0248 24.6473 98.1834 25.3333 98.1834 26.108C98.1834 26.8827 98.0248 27.578 97.7074 28.194C97.3901 28.8007 96.9514 29.2767 96.3914 29.622C95.8408 29.958 95.2294 30.126 94.5574 30.126C93.9694 30.126 93.4468 30.0093 92.9894 29.776C92.5321 29.5333 92.1588 29.2347 91.8694 28.88V33.668H90.2734V22.286H91.8694V23.42ZM96.5594 26.108C96.5594 25.576 96.4474 25.1187 96.2234 24.736C96.0088 24.344 95.7194 24.05 95.3554 23.854C95.0008 23.6487 94.6181 23.546 94.2074 23.546C93.8061 23.546 93.4234 23.6487 93.0594 23.854C92.7048 24.0593 92.4154 24.358 92.1914 24.75C91.9768 25.142 91.8694 25.604 91.8694 26.136C91.8694 26.668 91.9768 27.1347 92.1914 27.536C92.4154 27.928 92.7048 28.2267 93.0594 28.432C93.4234 28.6373 93.8061 28.74 94.2074 28.74C94.6181 28.74 95.0008 28.6373 95.3554 28.432C95.7194 28.2173 96.0088 27.9093 96.2234 27.508C96.4474 27.1067 96.5594 26.64 96.5594 26.108ZM101.428 19.64V30H99.8317V19.64H101.428ZM103.061 26.108C103.061 25.3333 103.22 24.6473 103.537 24.05C103.864 23.4527 104.302 22.9907 104.853 22.664C105.413 22.328 106.029 22.16 106.701 22.16C107.308 22.16 107.835 22.2813 108.283 22.524C108.74 22.7573 109.104 23.0513 109.375 23.406V22.286H110.985V30H109.375V28.852C109.104 29.216 108.736 29.5193 108.269 29.762C107.802 30.0047 107.27 30.126 106.673 30.126C106.01 30.126 105.404 29.958 104.853 29.622C104.302 29.2767 103.864 28.8007 103.537 28.194C103.22 27.578 103.061 26.8827 103.061 26.108ZM109.375 26.136C109.375 25.604 109.263 25.142 109.039 24.75C108.824 24.358 108.54 24.0593 108.185 23.854C107.83 23.6487 107.448 23.546 107.037 23.546C106.626 23.546 106.244 23.6487 105.889 23.854C105.534 24.05 105.245 24.344 105.021 24.736C104.806 25.1187 104.699 25.576 104.699 26.108C104.699 26.64 104.806 27.1067 105.021 27.508C105.245 27.9093 105.534 28.2173 105.889 28.432C106.253 28.6373 106.636 28.74 107.037 28.74C107.448 28.74 107.83 28.6373 108.185 28.432C108.54 28.2267 108.824 27.928 109.039 27.536C109.263 27.1347 109.375 26.668 109.375 26.136ZM113.963 21.264C113.674 21.264 113.431 21.166 113.235 20.97C113.039 20.774 112.941 20.5313 112.941 20.242C112.941 19.9527 113.039 19.71 113.235 19.514C113.431 19.318 113.674 19.22 113.963 19.22C114.243 19.22 114.481 19.318 114.677 19.514C114.873 19.71 114.971 19.9527 114.971 20.242C114.971 20.5313 114.873 20.774 114.677 20.97C114.481 21.166 114.243 21.264 113.963 21.264ZM114.747 22.286V30H113.151V22.286H114.747ZM120.805 22.16C121.411 22.16 121.953 22.286 122.429 22.538C122.914 22.79 123.292 23.1633 123.563 23.658C123.833 24.1527 123.969 24.75 123.969 25.45V30H122.387V25.688C122.387 24.9973 122.214 24.47 121.869 24.106C121.523 23.7327 121.052 23.546 120.455 23.546C119.857 23.546 119.381 23.7327 119.027 24.106C118.681 24.47 118.509 24.9973 118.509 25.688V30H116.913V22.286H118.509V23.168C118.77 22.8507 119.101 22.6033 119.503 22.426C119.913 22.2487 120.347 22.16 120.805 22.16ZM127.937 23.588V27.858C127.937 28.1473 128.002 28.3573 128.133 28.488C128.273 28.6093 128.506 28.67 128.833 28.67H129.813V30H128.553C127.834 30 127.283 29.832 126.901 29.496C126.518 29.16 126.327 28.614 126.327 27.858V23.588H125.417V22.286H126.327V20.368H127.937V22.286H129.813V23.588H127.937ZM138.238 20.27C139.274 20.27 140.18 20.4707 140.954 20.872C141.738 21.264 142.34 21.8333 142.76 22.58C143.19 23.3173 143.404 24.1807 143.404 25.17C143.404 26.1593 143.19 27.018 142.76 27.746C142.34 28.474 141.738 29.034 140.954 29.426C140.18 29.8087 139.274 30 138.238 30H135.06V20.27H138.238ZM138.238 28.698C139.377 28.698 140.25 28.39 140.856 27.774C141.463 27.158 141.766 26.29 141.766 25.17C141.766 24.0407 141.463 23.1587 140.856 22.524C140.25 21.8893 139.377 21.572 138.238 21.572H136.656V28.698H138.238ZM152.126 25.954C152.126 26.2433 152.107 26.5047 152.07 26.738H146.176C146.223 27.354 146.451 27.8487 146.862 28.222C147.273 28.5953 147.777 28.782 148.374 28.782C149.233 28.782 149.839 28.4227 150.194 27.704H151.916C151.683 28.4133 151.258 28.9967 150.642 29.454C150.035 29.902 149.279 30.126 148.374 30.126C147.637 30.126 146.974 29.9627 146.386 29.636C145.807 29.3 145.35 28.8333 145.014 28.236C144.687 27.6293 144.524 26.9293 144.524 26.136C144.524 25.3427 144.683 24.6473 145 24.05C145.327 23.4433 145.779 22.9767 146.358 22.65C146.946 22.3233 147.618 22.16 148.374 22.16C149.102 22.16 149.751 22.3187 150.32 22.636C150.889 22.9533 151.333 23.4013 151.65 23.98C151.967 24.5493 152.126 25.2073 152.126 25.954ZM150.46 25.45C150.451 24.862 150.241 24.3907 149.83 24.036C149.419 23.6813 148.911 23.504 148.304 23.504C147.753 23.504 147.282 23.6813 146.89 24.036C146.498 24.3813 146.265 24.8527 146.19 25.45H150.46ZM155.629 23.588V27.858C155.629 28.1473 155.694 28.3573 155.825 28.488C155.965 28.6093 156.198 28.67 156.525 28.67H157.505V30H156.245C155.526 30 154.975 29.832 154.593 29.496C154.21 29.16 154.019 28.614 154.019 27.858V23.588H153.109V22.286H154.019V20.368H155.629V22.286H157.505V23.588H155.629ZM158.514 26.108C158.514 25.3333 158.672 24.6473 158.99 24.05C159.316 23.4527 159.755 22.9907 160.306 22.664C160.866 22.328 161.482 22.16 162.154 22.16C162.76 22.16 163.288 22.2813 163.736 22.524C164.193 22.7573 164.557 23.0513 164.828 23.406V22.286H166.438V30H164.828V28.852C164.557 29.216 164.188 29.5193 163.722 29.762C163.255 30.0047 162.723 30.126 162.126 30.126C161.463 30.126 160.856 29.958 160.306 29.622C159.755 29.2767 159.316 28.8007 158.99 28.194C158.672 27.578 158.514 26.8827 158.514 26.108ZM164.828 26.136C164.828 25.604 164.716 25.142 164.492 24.75C164.277 24.358 163.992 24.0593 163.638 23.854C163.283 23.6487 162.9 23.546 162.49 23.546C162.079 23.546 161.696 23.6487 161.342 23.854C160.987 24.05 160.698 24.344 160.474 24.736C160.259 25.1187 160.152 25.576 160.152 26.108C160.152 26.64 160.259 27.1067 160.474 27.508C160.698 27.9093 160.987 28.2173 161.342 28.432C161.706 28.6373 162.088 28.74 162.49 28.74C162.9 28.74 163.283 28.6373 163.638 28.432C163.992 28.2267 164.277 27.928 164.492 27.536C164.716 27.1347 164.828 26.668 164.828 26.136ZM169.416 21.264C169.127 21.264 168.884 21.166 168.688 20.97C168.492 20.774 168.394 20.5313 168.394 20.242C168.394 19.9527 168.492 19.71 168.688 19.514C168.884 19.318 169.127 19.22 169.416 19.22C169.696 19.22 169.934 19.318 170.13 19.514C170.326 19.71 170.424 19.9527 170.424 20.242C170.424 20.5313 170.326 20.774 170.13 20.97C169.934 21.166 169.696 21.264 169.416 21.264ZM170.2 22.286V30H168.604V22.286H170.2ZM173.961 19.64V30H172.365V19.64H173.961ZM178.927 30.126C178.32 30.126 177.774 30.0187 177.289 29.804C176.813 29.58 176.435 29.2813 176.155 28.908C175.875 28.5253 175.725 28.1007 175.707 27.634H177.359C177.387 27.9607 177.541 28.236 177.821 28.46C178.11 28.6747 178.469 28.782 178.899 28.782C179.347 28.782 179.692 28.698 179.935 28.53C180.187 28.3527 180.313 28.1287 180.313 27.858C180.313 27.5687 180.173 27.354 179.893 27.214C179.622 27.074 179.188 26.92 178.591 26.752C178.012 26.5933 177.541 26.4393 177.177 26.29C176.813 26.1407 176.495 25.912 176.225 25.604C175.963 25.296 175.833 24.89 175.833 24.386C175.833 23.9753 175.954 23.602 176.197 23.266C176.439 22.9207 176.785 22.65 177.233 22.454C177.69 22.258 178.213 22.16 178.801 22.16C179.678 22.16 180.383 22.384 180.915 22.832C181.456 23.2707 181.745 23.8727 181.783 24.638H180.187C180.159 24.2927 180.019 24.0173 179.767 23.812C179.515 23.6067 179.174 23.504 178.745 23.504C178.325 23.504 178.003 23.5833 177.779 23.742C177.555 23.9007 177.443 24.1107 177.443 24.372C177.443 24.5773 177.517 24.75 177.667 24.89C177.816 25.03 177.998 25.142 178.213 25.226C178.427 25.3007 178.745 25.3987 179.165 25.52C179.725 25.6693 180.182 25.8233 180.537 25.982C180.901 26.1313 181.213 26.3553 181.475 26.654C181.736 26.9527 181.871 27.3493 181.881 27.844C181.881 28.2827 181.759 28.6747 181.517 29.02C181.274 29.3653 180.929 29.636 180.481 29.832C180.042 30.028 179.524 30.126 178.927 30.126Z" fill="#F6F6F6"/>
</svg>
