<svg width="197" height="46" viewBox="0 0 197 46" fill="none" xmlns="http://www.w3.org/2000/svg">
<rect width="197" height="46" rx="4" fill="#245FD3"/>
<path d="M38.16 28L35.696 24.052H34.562V28H32.966V18.116H36.452C37.5813 18.116 38.4353 18.3913 39.014 18.942C39.602 19.4927 39.896 20.2207 39.896 21.126C39.896 21.9007 39.6767 22.5353 39.238 23.03C38.8087 23.5247 38.1833 23.842 37.362 23.982L39.952 28H38.16ZM34.562 22.918H36.326C37.614 22.918 38.258 22.3487 38.258 21.21C38.258 20.6687 38.0993 20.2487 37.782 19.95C37.474 19.642 36.9887 19.488 36.326 19.488H34.562V22.918ZM48.7812 23.772C48.7812 24.0333 48.7625 24.262 48.7252 24.458H42.7892C42.8172 25.2513 43.0365 25.8393 43.4472 26.222C43.8579 26.6047 44.3665 26.796 44.9732 26.796C45.5052 26.796 45.9532 26.6607 46.3172 26.39C46.6905 26.1193 46.9192 25.76 47.0032 25.312H48.7112C48.6085 25.8533 48.3939 26.334 48.0672 26.754C47.7405 27.174 47.3159 27.5053 46.7932 27.748C46.2705 27.9813 45.6872 28.098 45.0432 28.098C44.2965 28.098 43.6339 27.9393 43.0552 27.622C42.4859 27.3047 42.0379 26.8473 41.7112 26.25C41.3845 25.6527 41.2212 24.948 41.2212 24.136C41.2212 23.3333 41.3845 22.6333 41.7112 22.036C42.0379 21.4387 42.4859 20.9813 43.0552 20.664C43.6339 20.3467 44.2965 20.188 45.0432 20.188C45.7992 20.188 46.4572 20.3467 47.0172 20.664C47.5865 20.972 48.0205 21.4013 48.3192 21.952C48.6272 22.4933 48.7812 23.1 48.7812 23.772ZM47.1712 23.73C47.1899 23.226 47.1012 22.806 46.9052 22.47C46.7185 22.1247 46.4572 21.8727 46.1212 21.714C45.7945 21.546 45.4352 21.462 45.0432 21.462C44.4179 21.462 43.8952 21.6533 43.4752 22.036C43.0552 22.4187 42.8265 22.9833 42.7892 23.73H47.1712ZM53.6962 20.188C54.3962 20.188 54.9935 20.3607 55.4882 20.706C55.9828 21.0513 56.3328 21.5087 56.5382 22.078V20.286H58.1342V28.084C58.1342 28.8027 57.9848 29.4373 57.6862 29.988C57.3968 30.548 56.9768 30.9867 56.4262 31.304C55.8755 31.6213 55.2222 31.78 54.4662 31.78C53.3835 31.78 52.5062 31.5233 51.8342 31.01C51.1715 30.4967 50.7562 29.8013 50.5882 28.924H52.1702C52.3008 29.3813 52.5528 29.736 52.9262 29.988C53.2995 30.2493 53.7755 30.38 54.3542 30.38C54.9888 30.38 55.5115 30.184 55.9222 29.792C56.3328 29.4 56.5382 28.8307 56.5382 28.084V26.208C56.3328 26.7773 55.9828 27.2347 55.4882 27.58C54.9935 27.9253 54.3962 28.098 53.6962 28.098C53.0242 28.098 52.4222 27.9393 51.8902 27.622C51.3675 27.3047 50.9568 26.8473 50.6582 26.25C50.3595 25.6527 50.2102 24.948 50.2102 24.136C50.2102 23.3333 50.3595 22.6333 50.6582 22.036C50.9568 21.4387 51.3675 20.9813 51.8902 20.664C52.4222 20.3467 53.0242 20.188 53.6962 20.188ZM54.1862 21.588C53.4768 21.588 52.9075 21.8167 52.4782 22.274C52.0582 22.722 51.8482 23.3427 51.8482 24.136C51.8482 24.9293 52.0582 25.5547 52.4782 26.012C52.9075 26.46 53.4768 26.684 54.1862 26.684C54.6342 26.684 55.0355 26.5813 55.3902 26.376C55.7448 26.1613 56.0248 25.8627 56.2302 25.48C56.4355 25.0973 56.5382 24.6493 56.5382 24.136C56.5382 23.632 56.4355 23.1887 56.2302 22.806C56.0248 22.414 55.7448 22.1153 55.3902 21.91C55.0355 21.6953 54.6342 21.588 54.1862 21.588ZM60.1054 18.046C60.1054 17.7753 60.1988 17.5513 60.3854 17.374C60.5721 17.1967 60.8194 17.108 61.1274 17.108C61.4354 17.108 61.6828 17.1967 61.8694 17.374C62.0654 17.5513 62.1634 17.7753 62.1634 18.046C62.1634 18.3167 62.0654 18.536 61.8694 18.704C61.6828 18.872 61.4354 18.956 61.1274 18.956C60.8194 18.956 60.5721 18.872 60.3854 18.704C60.1988 18.536 60.1054 18.3167 60.1054 18.046ZM61.9254 20.286V28H60.3294V20.286H61.9254ZM66.6708 20.188C67.5761 20.188 68.2994 20.4213 68.8408 20.888C69.3914 21.3453 69.7274 21.9613 69.8488 22.736H68.3368C68.2714 22.316 68.0894 21.98 67.7908 21.728C67.5014 21.4667 67.1141 21.336 66.6288 21.336C66.2274 21.336 65.9148 21.434 65.6908 21.63C65.4761 21.8167 65.3688 22.0733 65.3688 22.4C65.3688 22.6427 65.4481 22.8387 65.6068 22.988C65.7654 23.1373 65.9614 23.254 66.1948 23.338C66.4374 23.422 66.7781 23.5153 67.2168 23.618C67.7954 23.7487 68.2621 23.884 68.6168 24.024C68.9808 24.164 69.2888 24.388 69.5408 24.696C69.8021 24.9947 69.9328 25.4053 69.9328 25.928C69.9328 26.572 69.6854 27.0947 69.1908 27.496C68.7054 27.8973 68.0474 28.098 67.2168 28.098C66.2554 28.098 65.4761 27.874 64.8788 27.426C64.2908 26.978 63.9361 26.3527 63.8148 25.55H65.3688C65.4154 25.97 65.6021 26.3107 65.9288 26.572C66.2554 26.8333 66.6848 26.964 67.2168 26.964C67.5994 26.964 67.8981 26.866 68.1128 26.67C68.3368 26.4647 68.4488 26.208 68.4488 25.9C68.4488 25.6293 68.3648 25.4147 68.1968 25.256C68.0288 25.0973 67.8188 24.976 67.5668 24.892C67.3148 24.7987 66.9694 24.7053 66.5308 24.612C65.9708 24.4813 65.5134 24.3507 65.1588 24.22C64.8134 24.0893 64.5148 23.8793 64.2628 23.59C64.0201 23.2913 63.8988 22.89 63.8988 22.386C63.8988 21.7327 64.1414 21.2053 64.6268 20.804C65.1214 20.3933 65.8028 20.188 66.6708 20.188ZM75.6913 26.614V28H74.7113C73.8899 28 73.2646 27.804 72.8353 27.412C72.4153 27.0107 72.2053 26.348 72.2053 25.424V21.644H71.0993V20.286H72.2053V18.368H73.8153V20.286H75.6773V21.644H73.8153V25.452C73.8153 25.8907 73.8946 26.194 74.0533 26.362C74.2213 26.53 74.5106 26.614 74.9213 26.614H75.6913ZM84.6343 23.772C84.6343 24.0333 84.6156 24.262 84.5783 24.458H78.6423C78.6703 25.2513 78.8896 25.8393 79.3003 26.222C79.711 26.6047 80.2196 26.796 80.8263 26.796C81.3583 26.796 81.8063 26.6607 82.1703 26.39C82.5436 26.1193 82.7723 25.76 82.8563 25.312H84.5643C84.4616 25.8533 84.247 26.334 83.9203 26.754C83.5936 27.174 83.169 27.5053 82.6463 27.748C82.1236 27.9813 81.5403 28.098 80.8963 28.098C80.1496 28.098 79.487 27.9393 78.9083 27.622C78.339 27.3047 77.891 26.8473 77.5643 26.25C77.2376 25.6527 77.0743 24.948 77.0743 24.136C77.0743 23.3333 77.2376 22.6333 77.5643 22.036C77.891 21.4387 78.339 20.9813 78.9083 20.664C79.487 20.3467 80.1496 20.188 80.8963 20.188C81.6523 20.188 82.3103 20.3467 82.8703 20.664C83.4396 20.972 83.8736 21.4013 84.1723 21.952C84.4803 22.4933 84.6343 23.1 84.6343 23.772ZM83.0243 23.73C83.043 23.226 82.9543 22.806 82.7583 22.47C82.5716 22.1247 82.3103 21.8727 81.9743 21.714C81.6476 21.546 81.2883 21.462 80.8963 21.462C80.271 21.462 79.7483 21.6533 79.3283 22.036C78.9083 22.4187 78.6796 22.9833 78.6423 23.73H83.0243ZM88.0513 21.798C88.3126 21.294 88.686 20.8973 89.1713 20.608C89.6566 20.3093 90.2166 20.16 90.8513 20.16V21.896H90.3753C89.6753 21.896 89.1106 22.0687 88.6813 22.414C88.2613 22.75 88.0513 23.31 88.0513 24.094V28H86.4553V20.286H88.0513V21.798ZM99.7663 26.614V28H98.7863C97.965 28 97.3397 27.804 96.9103 27.412C96.4903 27.0107 96.2803 26.348 96.2803 25.424V21.644H95.1743V20.286H96.2803V18.368H97.8903V20.286H99.7523V21.644H97.8903V25.452C97.8903 25.8907 97.9697 26.194 98.1283 26.362C98.2963 26.53 98.5857 26.614 98.9963 26.614H99.7663ZM105.853 20.16C106.749 20.16 107.468 20.4493 108.009 21.028C108.551 21.6067 108.821 22.4327 108.821 23.506V28H107.225V23.674C107.225 22.9833 107.048 22.4513 106.693 22.078C106.339 21.6953 105.853 21.504 105.237 21.504C104.603 21.504 104.094 21.7093 103.711 22.12C103.329 22.5213 103.137 23.114 103.137 23.898V28H101.541V17.64H103.137V21.98C103.343 21.4013 103.688 20.9533 104.173 20.636C104.659 20.3187 105.219 20.16 105.853 20.16ZM110.744 18.046C110.744 17.7753 110.837 17.5513 111.024 17.374C111.211 17.1967 111.458 17.108 111.766 17.108C112.074 17.108 112.321 17.1967 112.508 17.374C112.704 17.5513 112.802 17.7753 112.802 18.046C112.802 18.3167 112.704 18.536 112.508 18.704C112.321 18.872 112.074 18.956 111.766 18.956C111.458 18.956 111.211 18.872 111.024 18.704C110.837 18.536 110.744 18.3167 110.744 18.046ZM112.564 20.286V28H110.968V20.286H112.564ZM117.309 20.188C118.215 20.188 118.938 20.4213 119.479 20.888C120.03 21.3453 120.366 21.9613 120.487 22.736H118.975C118.91 22.316 118.728 21.98 118.429 21.728C118.14 21.4667 117.753 21.336 117.267 21.336C116.866 21.336 116.553 21.434 116.329 21.63C116.115 21.8167 116.007 22.0733 116.007 22.4C116.007 22.6427 116.087 22.8387 116.245 22.988C116.404 23.1373 116.6 23.254 116.833 23.338C117.076 23.422 117.417 23.5153 117.855 23.618C118.434 23.7487 118.901 23.884 119.255 24.024C119.619 24.164 119.927 24.388 120.179 24.696C120.441 24.9947 120.571 25.4053 120.571 25.928C120.571 26.572 120.324 27.0947 119.829 27.496C119.344 27.8973 118.686 28.098 117.855 28.098C116.894 28.098 116.115 27.874 115.517 27.426C114.929 26.978 114.575 26.3527 114.453 25.55H116.007C116.054 25.97 116.241 26.3107 116.567 26.572C116.894 26.8333 117.323 26.964 117.855 26.964C118.238 26.964 118.537 26.866 118.751 26.67C118.975 26.4647 119.087 26.208 119.087 25.9C119.087 25.6293 119.003 25.4147 118.835 25.256C118.667 25.0973 118.457 24.976 118.205 24.892C117.953 24.7987 117.608 24.7053 117.169 24.612C116.609 24.4813 116.152 24.3507 115.797 24.22C115.452 24.0893 115.153 23.8793 114.901 23.59C114.659 23.2913 114.537 22.89 114.537 22.386C114.537 21.7327 114.78 21.2053 115.265 20.804C115.76 20.3933 116.441 20.188 117.309 20.188ZM129.541 20.188C130.288 20.188 130.96 20.3467 131.557 20.664C132.154 20.9813 132.621 21.4387 132.957 22.036C133.293 22.6333 133.461 23.3333 133.461 24.136C133.461 24.948 133.293 25.6527 132.957 26.25C132.621 26.8473 132.154 27.3047 131.557 27.622C130.96 27.9393 130.288 28.098 129.541 28.098C128.794 28.098 128.122 27.9393 127.525 27.622C126.937 27.3047 126.47 26.8473 126.125 26.25C125.789 25.6433 125.621 24.9387 125.621 24.136C125.621 23.3333 125.789 22.6333 126.125 22.036C126.47 21.4387 126.937 20.9813 127.525 20.664C128.122 20.3467 128.794 20.188 129.541 20.188ZM129.541 21.574C129.13 21.574 128.752 21.6673 128.407 21.854C128.062 22.0407 127.782 22.33 127.567 22.722C127.362 23.1047 127.259 23.576 127.259 24.136C127.259 24.7053 127.362 25.1813 127.567 25.564C127.782 25.9467 128.062 26.2313 128.407 26.418C128.752 26.6047 129.13 26.698 129.541 26.698C129.952 26.698 130.33 26.6047 130.675 26.418C131.02 26.2313 131.296 25.9467 131.501 25.564C131.716 25.1813 131.823 24.7053 131.823 24.136C131.823 23.576 131.716 23.1047 131.501 22.722C131.296 22.33 131.02 22.0407 130.675 21.854C130.33 21.6673 129.952 21.574 129.541 21.574ZM136.871 21.798C137.133 21.294 137.506 20.8973 137.991 20.608C138.477 20.3093 139.037 20.16 139.671 20.16V21.896H139.195C138.495 21.896 137.931 22.0687 137.501 22.414C137.081 22.75 136.871 23.31 136.871 24.094V28H135.275V20.286H136.871V21.798ZM144.241 20.188C144.941 20.188 145.539 20.3607 146.033 20.706C146.528 21.0513 146.873 21.5087 147.069 22.078V17.64H148.679V28H147.069V26.208C146.873 26.7773 146.528 27.2347 146.033 27.58C145.539 27.9253 144.941 28.098 144.241 28.098C143.569 28.098 142.967 27.9393 142.435 27.622C141.913 27.3047 141.502 26.8473 141.203 26.25C140.905 25.6527 140.755 24.948 140.755 24.136C140.755 23.3333 140.905 22.6333 141.203 22.036C141.502 21.4387 141.913 20.9813 142.435 20.664C142.967 20.3467 143.569 20.188 144.241 20.188ZM144.731 21.588C144.022 21.588 143.453 21.8167 143.023 22.274C142.603 22.722 142.393 23.3427 142.393 24.136C142.393 24.9293 142.603 25.5547 143.023 26.012C143.453 26.46 144.022 26.684 144.731 26.684C145.179 26.684 145.581 26.5813 145.935 26.376C146.29 26.1613 146.57 25.8627 146.775 25.48C146.981 25.0973 147.083 24.6493 147.083 24.136C147.083 23.632 146.981 23.1887 146.775 22.806C146.57 22.414 146.29 22.1153 145.935 21.91C145.581 21.6953 145.179 21.588 144.731 21.588ZM158.042 23.772C158.042 24.0333 158.024 24.262 157.986 24.458H152.05C152.078 25.2513 152.298 25.8393 152.708 26.222C153.119 26.6047 153.628 26.796 154.234 26.796C154.766 26.796 155.214 26.6607 155.578 26.39C155.952 26.1193 156.18 25.76 156.264 25.312H157.972C157.87 25.8533 157.655 26.334 157.328 26.754C157.002 27.174 156.577 27.5053 156.054 27.748C155.532 27.9813 154.948 28.098 154.304 28.098C153.558 28.098 152.895 27.9393 152.316 27.622C151.747 27.3047 151.299 26.8473 150.972 26.25C150.646 25.6527 150.482 24.948 150.482 24.136C150.482 23.3333 150.646 22.6333 150.972 22.036C151.299 21.4387 151.747 20.9813 152.316 20.664C152.895 20.3467 153.558 20.188 154.304 20.188C155.06 20.188 155.718 20.3467 156.278 20.664C156.848 20.972 157.282 21.4013 157.58 21.952C157.888 22.4933 158.042 23.1 158.042 23.772ZM156.432 23.73C156.451 23.226 156.362 22.806 156.166 22.47C155.98 22.1247 155.718 21.8727 155.382 21.714C155.056 21.546 154.696 21.462 154.304 21.462C153.679 21.462 153.156 21.6533 152.736 22.036C152.316 22.4187 152.088 22.9833 152.05 23.73H156.432ZM161.459 21.798C161.721 21.294 162.094 20.8973 162.579 20.608C163.065 20.3093 163.625 20.16 164.259 20.16V21.896H163.783C163.083 21.896 162.519 22.0687 162.089 22.414C161.669 22.75 161.459 23.31 161.459 24.094V28H159.863V20.286H161.459V21.798Z" fill="#F6F6F6"/>
</svg>
