<svg width="420" height="305" viewBox="0 0 420 305" fill="none" xmlns="http://www.w3.org/2000/svg">
<rect x="205.24" y="54.1562" width="7.72682" height="212.552" fill="url(#paint0_linear)"/>
<path d="M158.119 269.872C158.119 268.125 159.535 266.709 161.282 266.709H255.957C257.704 266.709 259.12 268.125 259.12 269.872V279.269H158.119V269.872Z" fill="url(#paint1_linear)"/>
<path d="M139.184 282.432C139.184 280.685 140.6 279.269 142.347 279.269H274.896C276.643 279.269 278.059 280.685 278.059 282.432V291.829H139.184V282.432Z" fill="url(#paint2_linear)"/>
<path d="M120.244 294.991C120.244 293.244 121.66 291.828 123.407 291.828H293.832C295.579 291.828 296.995 293.244 296.995 294.991V304.388H120.244V294.991Z" fill="url(#paint3_linear)"/>
<path d="M315.689 126.531C330.41 122.058 372.014 115.795 418.733 126.531C400.634 133.242 351.405 139.473 315.689 126.531Z" fill="#BB4137"/>
<rect width="46.6588" height="12.9748" transform="matrix(0.999983 -0.00589401 0.00597581 0.999982 343.201 124.021)" fill="#F6F6F6"/>
<path d="M351.823 128.18C352.247 128.177 352.599 128.284 352.88 128.501C353.161 128.718 353.347 129.014 353.44 129.389L352.727 129.393C352.652 129.21 352.535 129.067 352.377 128.962C352.222 128.856 352.036 128.805 351.817 128.806C351.637 128.807 351.475 128.853 351.331 128.944C351.187 129.034 351.076 129.164 350.997 129.331C350.917 129.499 350.878 129.695 350.88 129.92C350.881 130.141 350.922 130.335 351.004 130.502C351.085 130.668 351.198 130.796 351.343 130.885C351.488 130.974 351.651 131.018 351.83 131.017C352.049 131.016 352.235 130.962 352.388 130.855C352.545 130.748 352.66 130.603 352.733 130.419L353.446 130.415C353.358 130.791 353.175 131.09 352.897 131.31C352.619 131.53 352.268 131.641 351.844 131.643C351.519 131.645 351.232 131.575 350.98 131.432C350.732 131.285 350.538 131.081 350.398 130.818C350.262 130.556 350.193 130.258 350.191 129.924C350.189 129.586 350.254 129.286 350.388 129.021C350.524 128.757 350.716 128.552 350.962 128.406C351.209 128.257 351.496 128.181 351.823 128.18ZM356.5 128.138C356.818 128.136 357.106 128.208 357.364 128.354C357.625 128.5 357.83 128.706 357.979 128.972C358.132 129.234 358.209 129.533 358.211 129.867C358.213 130.201 358.139 130.501 357.99 130.769C357.844 131.036 357.641 131.245 357.382 131.394C357.126 131.543 356.839 131.619 356.521 131.621C356.203 131.623 355.913 131.55 355.652 131.404C355.395 131.258 355.189 131.052 355.037 130.786C354.887 130.521 354.812 130.221 354.81 129.887C354.808 129.553 354.88 129.254 355.026 128.989C355.175 128.722 355.378 128.513 355.634 128.364C355.893 128.215 356.182 128.139 356.5 128.138ZM356.504 128.764C356.305 128.765 356.13 128.811 355.979 128.902C355.829 128.993 355.711 129.123 355.625 129.294C355.543 129.462 355.502 129.658 355.504 129.883C355.505 130.107 355.548 130.305 355.632 130.474C355.72 130.641 355.84 130.769 355.991 130.858C356.143 130.947 356.318 130.991 356.517 130.99C356.716 130.988 356.891 130.942 357.041 130.852C357.192 130.761 357.308 130.632 357.391 130.464C357.476 130.293 357.519 130.096 357.517 129.871C357.516 129.646 357.471 129.45 357.384 129.284C357.299 129.114 357.181 128.985 357.03 128.896C356.878 128.807 356.703 128.763 356.504 128.764ZM362.577 131.551L361.897 131.555L360.361 129.252L360.375 131.564L359.696 131.568L359.675 128.167L360.355 128.163L361.891 130.486L361.877 128.154L362.556 128.15L362.577 131.551ZM366.486 130.598C366.487 130.772 366.445 130.933 366.359 131.081C366.273 131.226 366.145 131.344 365.975 131.435C365.806 131.523 365.599 131.567 365.355 131.569C365.114 131.57 364.898 131.531 364.708 131.452C364.518 131.37 364.365 131.252 364.249 131.098C364.135 130.945 364.07 130.765 364.053 130.56L364.775 130.555C364.792 130.693 364.847 130.809 364.941 130.901C365.038 130.991 365.165 131.035 365.323 131.034C365.464 131.033 365.571 130.996 365.645 130.921C365.721 130.844 365.759 130.746 365.759 130.627C365.758 130.521 365.727 130.434 365.665 130.367C365.604 130.297 365.527 130.241 365.433 130.2C365.34 130.159 365.211 130.111 365.047 130.058C364.835 129.988 364.661 129.92 364.525 129.854C364.39 129.784 364.274 129.683 364.177 129.552C364.083 129.421 364.035 129.249 364.034 129.037C364.032 128.745 364.135 128.515 364.343 128.347C364.554 128.175 364.833 128.088 365.18 128.086C365.539 128.084 365.826 128.169 366.039 128.341C366.255 128.514 366.378 128.744 366.409 129.033L365.677 129.037C365.657 128.915 365.605 128.816 365.521 128.74C365.437 128.66 365.323 128.62 365.178 128.621C365.053 128.622 364.952 128.656 364.875 128.724C364.798 128.789 364.76 128.884 364.761 129.009C364.762 129.109 364.791 129.192 364.849 129.259C364.911 129.323 364.987 129.375 365.077 129.417C365.17 129.458 365.296 129.504 365.453 129.554C365.672 129.63 365.849 129.701 365.985 129.768C366.123 129.834 366.241 129.935 366.338 130.069C366.435 130.204 366.485 130.38 366.486 130.598ZM368.59 128.114L368.602 130.109C368.604 130.376 368.663 130.576 368.779 130.71C368.899 130.841 369.069 130.906 369.291 130.905C369.509 130.903 369.676 130.837 369.791 130.704C369.909 130.569 369.967 130.367 369.966 130.101L369.954 128.106L370.628 128.102L370.64 130.097C370.642 130.412 370.584 130.679 370.467 130.898C370.352 131.114 370.191 131.275 369.983 131.382C369.778 131.49 369.544 131.544 369.28 131.545C368.873 131.548 368.546 131.428 368.3 131.185C368.055 130.942 367.931 130.585 367.928 130.113L367.916 128.118L368.59 128.114ZM375.854 128.11L375.874 131.473L375.199 131.477L375.185 129.131L374.337 131.482L373.749 131.485L372.873 129.154L372.887 131.491L372.208 131.495L372.187 128.132L373.011 128.127L374.048 130.65L375.035 128.115L375.854 128.11ZM378.115 128.598L378.12 129.48L379.324 129.472L379.327 129.993L378.123 130L378.128 130.915L379.477 130.907L379.481 131.452L377.452 131.464L377.432 128.062L379.46 128.05L379.464 128.59L378.115 128.598ZM382.72 131.433L381.917 130.112L381.618 130.114L381.626 131.439L380.947 131.443L380.927 128.042L382.223 128.034C382.618 128.032 382.919 128.126 383.125 128.318C383.335 128.509 383.441 128.762 383.443 129.077C383.445 129.334 383.374 129.55 383.23 129.724C383.09 129.898 382.885 130.015 382.616 130.075L383.472 131.428L382.72 131.433ZM381.616 129.647L382.175 129.644C382.563 129.641 382.756 129.468 382.754 129.125C382.753 128.961 382.704 128.834 382.608 128.745C382.514 128.652 382.367 128.607 382.168 128.608L381.61 128.611L381.616 129.647Z" fill="#245FD3"/>
<path d="M350.415 118.648L342.982 124.02L389.64 123.746L395.324 118.383L350.415 118.648Z" fill="#EEEEEE"/>
<path d="M395.323 118.383L389.639 123.746L389.717 136.72L395.4 131.242L395.323 118.383Z" fill="#E9E9E9"/>
<path d="M418.733 126.532C372.725 138.765 330.867 131.629 315.689 126.532C321.173 137.946 339.43 160.774 368.593 160.774C397.756 160.774 414.171 137.946 418.733 126.532Z" fill="#ED483A"/>
<path d="M375.147 4.9519L375.871 7.12262L318.166 127.451L316.361 126.78L375.147 4.9519Z" fill="#B5B3C4"/>
<path d="M375.154 4.69189L374.432 6.8506L415.842 127.289L417.768 126.808L375.154 4.69189Z" fill="#B5B3C4"/>
<path d="M0 210.178C14.7205 205.704 56.3242 199.441 103.044 210.178C84.9448 216.888 35.7154 223.12 0 210.178Z" fill="#183C84"/>
<rect width="46.6588" height="12.9748" transform="matrix(0.999983 -0.00589401 0.00597581 0.999982 27.5117 207.667)" fill="#F6F6F6"/>
<path d="M39.3802 211.863C39.8041 211.861 40.1565 211.968 40.4372 212.185C40.7179 212.402 40.9044 212.698 40.9966 213.073L40.2835 213.077C40.2086 212.894 40.0921 212.751 39.9341 212.646C39.7793 212.54 39.5927 212.489 39.3743 212.49C39.1944 212.491 39.0325 212.537 38.8885 212.628C38.7445 212.718 38.6329 212.848 38.5536 213.015C38.4743 213.183 38.4353 213.379 38.4366 213.603C38.438 213.825 38.4793 214.019 38.5606 214.186C38.6419 214.352 38.755 214.48 38.9001 214.569C39.0452 214.658 39.2076 214.702 39.3875 214.701C39.6059 214.7 39.7919 214.646 39.9454 214.539C40.1021 214.432 40.2169 214.287 40.2897 214.103L41.0027 214.099C40.915 214.475 40.7321 214.774 40.454 214.994C40.1759 215.214 39.8248 215.325 39.4009 215.327C39.0765 215.329 38.7886 215.259 38.5372 215.116C38.289 214.969 38.0951 214.765 37.9554 214.502C37.8189 214.24 37.7497 213.942 37.7477 213.608C37.7457 213.27 37.8113 212.97 37.9447 212.705C38.0812 212.441 38.2727 212.236 38.5191 212.09C38.7656 211.941 39.0526 211.865 39.3802 211.863ZM44.057 211.821C44.375 211.82 44.6629 211.892 44.9207 212.038C45.1818 212.184 45.387 212.39 45.5363 212.656C45.6888 212.918 45.7661 213.217 45.7681 213.551C45.7701 213.885 45.6964 214.185 45.547 214.453C45.4009 214.72 45.1982 214.929 44.9389 215.078C44.6828 215.227 44.3958 215.303 44.0779 215.305C43.7599 215.307 43.4704 215.234 43.2093 215.088C42.9515 214.942 42.7463 214.736 42.5938 214.47C42.4445 214.205 42.3688 213.905 42.3668 213.571C42.3648 213.237 42.4369 212.938 42.583 212.673C42.7324 212.406 42.9351 212.197 43.1912 212.048C43.4505 211.899 43.7391 211.823 44.057 211.821ZM44.0608 212.448C43.8616 212.449 43.6869 212.495 43.5365 212.586C43.386 212.677 43.268 212.807 43.1823 212.978C43.0998 213.146 43.0592 213.342 43.0605 213.567C43.0619 213.791 43.1048 213.989 43.1893 214.158C43.2771 214.325 43.3967 214.453 43.5481 214.542C43.6996 214.631 43.875 214.675 44.0741 214.674C44.2732 214.672 44.448 214.626 44.5984 214.536C44.7488 214.445 44.8653 214.316 44.9478 214.148C45.0335 213.977 45.0757 213.78 45.0743 213.555C45.073 213.33 45.0285 213.134 44.9407 212.968C44.8562 212.798 44.7382 212.669 44.5867 212.58C44.4352 212.491 44.2599 212.447 44.0608 212.448ZM50.8989 211.868L50.9189 215.231L50.2445 215.235L50.2305 212.888L49.3821 215.24L48.7944 215.243L47.918 212.912L47.932 215.248L47.2527 215.252L47.2326 211.889L48.0564 211.885L49.0929 214.408L50.0798 211.873L50.8989 211.868ZM53.1693 213.955L53.1769 215.217L52.4976 215.221L52.4772 211.82L53.7154 211.813C54.1169 211.81 54.4193 211.905 54.6228 212.096C54.8295 212.288 54.9339 212.549 54.9359 212.88C54.9378 213.204 54.8334 213.463 54.6225 213.657C54.4149 213.851 54.1168 213.949 53.7282 213.952L53.1693 213.955ZM53.6526 213.408C54.0509 213.405 54.249 213.231 54.2469 212.884C54.2459 212.714 54.1986 212.584 54.1049 212.495C54.0112 212.405 53.8584 212.361 53.6464 212.362L53.1598 212.365L53.1661 213.411L53.6526 213.408ZM58.4221 214.502L57.0586 214.51L56.8219 215.196L56.104 215.2L57.3365 211.83L58.1122 211.825L59.38 215.181L58.6622 215.185L58.4221 214.502ZM58.2359 213.988L57.7263 212.555L57.2338 213.994L58.2359 213.988ZM63.5912 215.156L62.9119 215.16L61.3757 212.856L61.3895 215.169L60.7102 215.173L60.6899 211.772L61.3692 211.768L62.9055 214.09L62.8916 211.759L63.5709 211.755L63.5912 215.156ZM67.8903 211.729L66.7521 213.947L66.7592 215.137L66.0751 215.141L66.068 213.951L64.8985 211.747L65.679 211.742L66.4106 213.227L67.1243 211.734L67.8903 211.729Z" fill="#245FD3"/>
<path d="M34.7279 202.294L27.2945 207.667L73.9525 207.392L79.6362 202.03L34.7279 202.294Z" fill="#EEEEEE"/>
<path d="M79.6355 202.03L73.9518 207.393L74.0294 220.367L79.7125 214.889L79.6355 202.03Z" fill="#E9E9E9"/>
<path d="M103.044 210.179C57.036 222.412 15.178 215.276 0 210.179C5.48339 221.593 23.7409 244.421 52.9037 244.421C82.0666 244.421 98.4816 221.593 103.044 210.179Z" fill="#245FD3"/>
<path d="M59.461 88.5969L60.1851 90.7676L2.48065 211.096L0.675244 210.425L59.461 88.5969Z" fill="#B5B3C4"/>
<path d="M59.4648 88.3369L58.7424 90.4956L100.153 210.934L102.079 210.453L59.4648 88.3369Z" fill="#B5B3C4"/>
<rect width="328.438" height="5.79604" transform="matrix(0.965784 -0.259349 0.258289 0.966068 57.4805 89.1157)" fill="url(#paint4_linear)"/>
<ellipse cx="209.104" cy="46.4266" rx="15.4536" ry="15.4584" fill="url(#paint5_linear)"/>
<defs>
<linearGradient id="paint0_linear" x1="209.104" y1="54.1562" x2="209.104" y2="266.709" gradientUnits="userSpaceOnUse">
<stop stop-color="#4139A0"/>
<stop offset="1" stop-color="#245FD3"/>
</linearGradient>
<linearGradient id="paint1_linear" x1="208.619" y1="266.709" x2="208.619" y2="279.269" gradientUnits="userSpaceOnUse">
<stop stop-color="#2959CB"/>
<stop offset="1" stop-color="#3A44AF"/>
</linearGradient>
<linearGradient id="paint2_linear" x1="161.968" y1="279.269" x2="162.6" y2="296.235" gradientUnits="userSpaceOnUse">
<stop stop-color="#245FD3"/>
<stop offset="1" stop-color="#4139A0"/>
</linearGradient>
<linearGradient id="paint3_linear" x1="149.242" y1="291.828" x2="149.74" y2="308.803" gradientUnits="userSpaceOnUse">
<stop stop-color="#245FD3"/>
<stop offset="1" stop-color="#4139A0"/>
</linearGradient>
<linearGradient id="paint4_linear" x1="53.8844" y1="-2.50922e-08" x2="53.9414" y2="7.83971" gradientUnits="userSpaceOnUse">
<stop stop-color="#245FD3"/>
<stop offset="1" stop-color="#4139A0"/>
</linearGradient>
<linearGradient id="paint5_linear" x1="198.721" y1="30.9683" x2="213.458" y2="66.7126" gradientUnits="userSpaceOnUse">
<stop stop-color="#245FD3"/>
<stop offset="1" stop-color="#4139A0"/>
</linearGradient>
</defs>
</svg>
