<svg width="480" height="304" viewBox="0 0 480 304" fill="none" xmlns="http://www.w3.org/2000/svg">
<rect x="235.697" y="25.7812" width="8.60988" height="236.325" fill="url(#paint0_linear)"/>
<path d="M183.188 265.639C183.188 263.688 184.769 262.106 186.72 262.106H292.198C294.149 262.106 295.731 263.688 295.731 265.639V276.071H183.188V265.639Z" fill="url(#paint1_linear)"/>
<path d="M162.088 279.604C162.088 277.653 163.67 276.071 165.621 276.071H313.302C315.253 276.071 316.835 277.653 316.835 279.604V290.035H162.088V279.604Z" fill="url(#paint2_linear)"/>
<path d="M140.984 293.568C140.984 291.617 142.566 290.035 144.517 290.035H334.402C336.354 290.035 337.935 291.617 337.935 293.568V304H140.984V293.568Z" fill="url(#paint3_linear)"/>
<path d="M363.768 152.634C380.17 147.66 426.529 140.696 478.588 152.634C458.42 160.095 403.565 167.023 363.768 152.634Z" fill="#183C84"/>
<rect width="51.9912" height="14.4259" transform="matrix(0.999983 -0.00588107 0.00598892 0.999982 394.424 149.843)" fill="#F6F6F6"/>
<path d="M404.033 154.002C404.506 153.999 404.9 154.119 405.213 154.361C405.527 154.603 405.735 154.934 405.838 155.353L405.042 155.358C404.958 155.154 404.828 154.993 404.651 154.876C404.478 154.758 404.27 154.7 404.026 154.702C403.825 154.703 403.644 154.754 403.483 154.856C403.323 154.957 403.198 155.101 403.109 155.288C403.021 155.475 402.977 155.695 402.979 155.946C402.98 156.193 403.026 156.41 403.117 156.596C403.208 156.782 403.334 156.925 403.496 157.024C403.658 157.124 403.84 157.173 404.041 157.172C404.285 157.17 404.493 157.11 404.664 156.99C404.839 156.871 404.967 156.709 405.049 156.504L405.845 156.499C405.747 156.919 405.543 157.253 405.232 157.498C404.921 157.744 404.529 157.868 404.056 157.871C403.693 157.873 403.372 157.794 403.091 157.635C402.814 157.471 402.597 157.243 402.441 156.95C402.289 156.656 402.212 156.323 402.209 155.95C402.207 155.573 402.28 155.238 402.429 154.943C402.582 154.647 402.796 154.418 403.071 154.255C403.346 154.089 403.667 154.004 404.033 154.002ZM409.256 153.955C409.612 153.953 409.933 154.034 410.221 154.197C410.513 154.36 410.742 154.591 410.909 154.887C411.079 155.18 411.165 155.514 411.168 155.887C411.17 156.26 411.088 156.596 410.921 156.894C410.757 157.193 410.531 157.426 410.241 157.593C409.955 157.759 409.635 157.844 409.28 157.846C408.925 157.848 408.601 157.767 408.31 157.604C408.022 157.441 407.792 157.211 407.622 156.914C407.455 156.617 407.371 156.282 407.369 155.909C407.366 155.536 407.447 155.202 407.61 154.907C407.777 154.608 408.003 154.375 408.289 154.209C408.579 154.042 408.901 153.957 409.256 153.955ZM409.261 154.655C409.038 154.656 408.843 154.708 408.675 154.809C408.507 154.91 408.375 155.056 408.279 155.247C408.187 155.434 408.142 155.653 408.143 155.904C408.145 156.156 408.193 156.376 408.287 156.566C408.385 156.752 408.519 156.894 408.688 156.994C408.857 157.093 409.053 157.142 409.276 157.141C409.498 157.14 409.693 157.088 409.861 156.987C410.029 156.885 410.159 156.741 410.251 156.554C410.347 156.363 410.394 156.142 410.393 155.891C410.391 155.64 410.341 155.422 410.243 155.236C410.149 155.046 410.017 154.902 409.848 154.802C409.679 154.703 409.483 154.654 409.261 154.655ZM416.044 157.768L415.285 157.773L413.569 155.2L413.585 157.783L412.826 157.787L412.803 153.988L413.562 153.984L415.278 156.578L415.262 153.974L416.021 153.969L416.044 157.768ZM420.41 156.704C420.411 156.898 420.364 157.077 420.268 157.243C420.172 157.405 420.029 157.537 419.84 157.638C419.65 157.736 419.419 157.786 419.147 157.788C418.878 157.789 418.637 157.746 418.425 157.658C418.213 157.565 418.041 157.434 417.911 157.262C417.785 157.091 417.712 156.89 417.692 156.661L418.499 156.656C418.518 156.81 418.58 156.939 418.685 157.043C418.793 157.142 418.935 157.192 419.111 157.191C419.269 157.19 419.389 157.148 419.471 157.065C419.556 156.978 419.599 156.869 419.598 156.736C419.597 156.617 419.562 156.521 419.494 156.446C419.425 156.367 419.339 156.305 419.234 156.259C419.13 156.213 418.986 156.16 418.803 156.1C418.566 156.023 418.371 155.947 418.22 155.872C418.069 155.794 417.939 155.682 417.831 155.535C417.726 155.389 417.673 155.197 417.671 154.961C417.669 154.634 417.784 154.377 418.017 154.189C418.252 153.997 418.564 153.901 418.951 153.898C419.353 153.896 419.673 153.991 419.911 154.183C420.152 154.376 420.29 154.633 420.324 154.956L419.506 154.961C419.484 154.824 419.426 154.713 419.332 154.628C419.238 154.539 419.111 154.495 418.949 154.496C418.809 154.496 418.697 154.535 418.611 154.611C418.525 154.683 418.483 154.789 418.484 154.929C418.484 155.04 418.517 155.133 418.582 155.208C418.651 155.279 418.736 155.338 418.836 155.384C418.941 155.43 419.081 155.481 419.257 155.538C419.501 155.622 419.699 155.702 419.85 155.776C420.005 155.851 420.137 155.963 420.245 156.113C420.354 156.263 420.409 156.46 420.41 156.704ZM422.761 153.93L422.774 156.157C422.776 156.455 422.842 156.679 422.972 156.829C423.105 156.975 423.296 157.048 423.543 157.046C423.787 157.045 423.973 156.97 424.102 156.822C424.233 156.671 424.299 156.446 424.297 156.149L424.283 153.921L425.037 153.916L425.05 156.144C425.052 156.496 424.988 156.794 424.856 157.039C424.729 157.28 424.549 157.46 424.316 157.58C424.087 157.7 423.826 157.76 423.531 157.762C423.076 157.765 422.711 157.631 422.437 157.359C422.162 157.088 422.024 156.689 422.021 156.162L422.007 153.934L422.761 153.93ZM430.873 153.925L430.896 157.681L430.143 157.685L430.127 155.065L429.179 157.691L428.523 157.695L427.544 155.091L427.56 157.701L426.801 157.705L426.778 153.949L427.699 153.944L428.856 156.762L429.959 153.93L430.873 153.925ZM433.399 154.47L433.405 155.455L434.75 155.447L434.753 156.028L433.408 156.036L433.414 157.058L434.921 157.049L434.925 157.657L432.659 157.671L432.636 153.872L434.902 153.858L434.905 154.461L433.399 154.47ZM438.543 157.636L437.646 156.161L437.312 156.163L437.321 157.643L436.563 157.648L436.54 153.849L437.987 153.84C438.429 153.838 438.765 153.943 438.995 154.157C439.23 154.371 439.348 154.654 439.35 155.005C439.352 155.292 439.273 155.533 439.113 155.728C438.956 155.922 438.727 156.053 438.426 156.119L439.382 157.631L438.543 157.636ZM437.309 155.641L437.933 155.638C438.368 155.635 438.583 155.442 438.581 155.058C438.58 154.875 438.525 154.734 438.417 154.634C438.313 154.531 438.149 154.48 437.927 154.481L437.302 154.485L437.309 155.641Z" fill="#245FD3"/>
<path d="M402.461 143.869L394.178 149.842L446.169 149.537L452.502 143.575L402.461 143.869Z" fill="#EEEEEE"/>
<path d="M452.502 143.575L446.168 149.537L446.255 163.963L452.587 157.872L452.502 143.575Z" fill="#E9E9E9"/>
<path d="M478.588 152.634C427.322 166.236 380.68 158.302 363.768 152.634C369.878 165.325 390.222 190.707 422.717 190.707C455.213 190.707 473.504 165.325 478.588 152.634Z" fill="#245FD3"/>
<path d="M430.022 17.4623L430.829 19.8758L366.53 153.662L364.518 152.916L430.022 17.4623Z" fill="#B5B3C4"/>
<path d="M430.029 17.1733L429.224 19.5735L475.367 153.482L477.513 152.947L430.029 17.1733Z" fill="#B5B3C4"/>
<path d="M0 152.634C16.4029 147.66 62.7612 140.697 114.82 152.634C94.6527 160.095 39.7972 167.024 0 152.634Z" fill="#183C84"/>
<rect width="51.9912" height="14.4259" transform="matrix(0.999983 -0.00588107 0.00598892 0.999982 30.6562 149.843)" fill="#F6F6F6"/>
<path d="M43.8415 154.044C44.315 154.041 44.7086 154.161 45.0222 154.403C45.3357 154.645 45.544 154.976 45.6469 155.395L44.8505 155.4C44.7668 155.196 44.6367 155.035 44.4602 154.918C44.2873 154.8 44.0789 154.742 43.8349 154.744C43.634 154.745 43.4532 154.796 43.2923 154.898C43.1315 154.999 43.0068 155.143 42.9182 155.33C42.8297 155.517 42.7861 155.736 42.7877 155.988C42.7891 156.235 42.8353 156.452 42.9261 156.638C43.0169 156.824 43.1433 156.967 43.3053 157.066C43.4674 157.166 43.6488 157.215 43.8497 157.214C44.0937 157.212 44.3014 157.152 44.4729 157.032C44.6479 156.913 44.7761 156.751 44.8574 156.546L45.6538 156.541C45.5559 156.961 45.3516 157.294 45.0409 157.54C44.7303 157.786 44.3382 157.91 43.8647 157.913C43.5023 157.915 43.1808 157.836 42.9 157.677C42.6228 157.513 42.4062 157.285 42.2502 156.992C42.0977 156.698 42.0204 156.365 42.0182 155.992C42.0159 155.615 42.0892 155.28 42.2381 154.984C42.3906 154.689 42.6045 154.46 42.8798 154.297C43.155 154.131 43.4756 154.046 43.8415 154.044ZM49.0653 153.997C49.4205 153.995 49.742 154.076 50.03 154.239C50.3216 154.402 50.5508 154.632 50.7176 154.929C50.8879 155.222 50.9742 155.556 50.9765 155.929C50.9787 156.302 50.8964 156.638 50.7296 156.936C50.5663 157.235 50.3399 157.468 50.0503 157.635C49.7643 157.801 49.4438 157.886 49.0886 157.888C48.7335 157.89 48.4101 157.809 48.1185 157.646C47.8305 157.483 47.6014 157.253 47.431 156.956C47.2642 156.659 47.1797 156.324 47.1774 155.951C47.1752 155.578 47.2557 155.244 47.419 154.949C47.5858 154.65 47.8122 154.417 48.0982 154.25C48.3878 154.084 48.7102 153.999 49.0653 153.997ZM49.0695 154.697C48.8471 154.698 48.6519 154.749 48.4839 154.851C48.3159 154.952 48.184 155.098 48.0883 155.289C47.9961 155.476 47.9508 155.695 47.9523 155.946C47.9538 156.198 48.0018 156.418 48.0962 156.607C48.1941 156.793 48.3277 156.936 48.4969 157.036C48.6662 157.135 48.862 157.184 49.0844 157.183C49.3068 157.182 49.502 157.13 49.67 157.029C49.838 156.927 49.9681 156.783 50.0603 156.596C50.156 156.405 50.2031 156.184 50.2016 155.933C50.2001 155.682 50.1503 155.464 50.0524 155.278C49.958 155.088 49.8261 154.943 49.6569 154.844C49.4877 154.745 49.2919 154.695 49.0695 154.697ZM56.7072 154.049L56.7297 157.805L55.9764 157.81L55.9607 155.189L55.0132 157.815L54.3567 157.819L53.3778 155.215L53.3935 157.825L52.6347 157.829L52.6122 154.073L53.5324 154.068L54.6901 156.886L55.7924 154.055L56.7072 154.049ZM59.2432 156.38L59.2517 157.79L58.493 157.795L58.4702 153.996L59.8531 153.988C60.3016 153.985 60.6394 154.091 60.8667 154.305C61.0976 154.518 61.2141 154.81 61.2164 155.18C61.2185 155.542 61.1019 155.831 60.8664 156.048C60.6345 156.265 60.3015 156.374 59.8675 156.377L59.2432 156.38ZM59.7831 155.769C60.2279 155.767 60.4492 155.572 60.4469 155.184C60.4457 154.994 60.3928 154.849 60.2882 154.749C60.1836 154.649 60.0129 154.6 59.7761 154.602L59.2326 154.605L59.2396 155.772L59.7831 155.769ZM65.1103 156.992L63.5874 157.001L63.3229 157.766L62.5212 157.771L63.8977 154.007L64.7641 154.002L66.1803 157.75L65.3785 157.754L65.1103 156.992ZM64.9023 156.417L64.3331 154.817L63.7831 156.424L64.9023 156.417ZM70.8839 157.722L70.1252 157.726L68.4093 155.153L68.4248 157.736L67.666 157.741L67.6433 153.942L68.402 153.937L70.118 156.532L70.1024 153.927L70.8612 153.923L70.8839 157.722ZM75.6858 153.894L74.4145 156.372L74.4224 157.701L73.6583 157.706L73.6504 156.376L72.3441 153.914L73.2158 153.909L74.033 155.567L74.8302 153.9L75.6858 153.894Z" fill="#245FD3"/>
<path d="M38.6956 143.869L30.4127 149.843L82.403 149.537L88.7363 143.575L38.6956 143.869Z" fill="#EEEEEE"/>
<path d="M88.738 143.575L82.4047 149.538L82.4912 163.963L88.8237 157.872L88.738 143.575Z" fill="#E9E9E9"/>
<path d="M114.82 152.635C63.5544 166.236 16.9126 158.302 0 152.635C6.11006 165.326 26.4541 190.707 58.9498 190.707C91.4455 190.707 109.737 165.326 114.82 152.635Z" fill="#245FD3"/>
<path d="M66.2563 17.4627L67.0631 19.8762L2.7639 153.663L0.752162 152.916L66.2563 17.4627Z" fill="#B5B3C4"/>
<path d="M66.2617 17.1738L65.4567 19.574L111.6 153.483L113.746 152.947L66.2617 17.1738Z" fill="#B5B3C4"/>
<rect x="65.6484" y="17.187" width="365.92" height="6.44522" fill="url(#paint4_linear)"/>
<ellipse cx="240.001" cy="17.1873" rx="17.2198" ry="17.1873" fill="url(#paint5_linear)"/>
<defs>
<linearGradient id="paint0_linear" x1="240.002" y1="25.7812" x2="240.002" y2="262.106" gradientUnits="userSpaceOnUse">
<stop stop-color="#4139A0"/>
<stop offset="1" stop-color="#245FD3"/>
</linearGradient>
<linearGradient id="paint1_linear" x1="239.459" y1="262.106" x2="239.459" y2="276.071" gradientUnits="userSpaceOnUse">
<stop stop-color="#2959CB"/>
<stop offset="1" stop-color="#3A44AF"/>
</linearGradient>
<linearGradient id="paint2_linear" x1="187.476" y1="276.071" x2="188.178" y2="294.934" gradientUnits="userSpaceOnUse">
<stop stop-color="#245FD3"/>
<stop offset="1" stop-color="#4139A0"/>
</linearGradient>
<linearGradient id="paint3_linear" x1="173.297" y1="290.035" x2="173.848" y2="308.909" gradientUnits="userSpaceOnUse">
<stop stop-color="#245FD3"/>
<stop offset="1" stop-color="#4139A0"/>
</linearGradient>
<linearGradient id="paint4_linear" x1="125.682" y1="17.187" x2="125.745" y2="25.9048" gradientUnits="userSpaceOnUse">
<stop stop-color="#245FD3"/>
<stop offset="1" stop-color="#4139A0"/>
</linearGradient>
<linearGradient id="paint5_linear" x1="228.431" y1="-1.48814e-07" x2="244.791" y2="39.7673" gradientUnits="userSpaceOnUse">
<stop stop-color="#245FD3"/>
<stop offset="1" stop-color="#4139A0"/>
</linearGradient>
</defs>
</svg>
