<svg width="420" height="305" viewBox="0 0 420 305" fill="none" xmlns="http://www.w3.org/2000/svg">
<rect x="205.242" y="54.4346" width="7.72682" height="212.553" fill="url(#paint0_linear)"/>
<path d="M158.117 270.157C158.117 268.406 159.537 266.987 161.288 266.987H255.947C257.698 266.987 259.118 268.406 259.118 270.157V279.547H158.117V270.157Z" fill="url(#paint1_linear)"/>
<path d="M139.182 282.718C139.182 280.967 140.601 279.547 142.352 279.547H274.887C276.638 279.547 278.057 280.967 278.057 282.718V292.107H139.182V282.718Z" fill="url(#paint2_linear)"/>
<path d="M120.242 295.277C120.242 293.526 121.662 292.106 123.413 292.106H293.823C295.574 292.106 296.993 293.526 296.993 295.277V304.666H120.242V295.277Z" fill="url(#paint3_linear)"/>
<path d="M315.689 210.452C330.41 205.979 372.014 199.715 418.733 210.452C400.634 217.163 351.405 223.394 315.689 210.452Z" fill="#427B34"/>
<rect width="46.6588" height="12.9748" transform="matrix(0.999983 -0.005894 0.00597579 0.999982 343.201 207.942)" fill="#F6F6F6"/>
<path d="M351.826 212.093C352.251 212.09 352.604 212.198 352.885 212.415C353.167 212.632 353.353 212.929 353.446 213.305L352.731 213.309C352.656 213.126 352.539 212.982 352.381 212.877C352.226 212.771 352.039 212.719 351.82 212.721C351.639 212.722 351.477 212.768 351.333 212.859C351.188 212.95 351.076 213.079 350.997 213.247C350.917 213.415 350.878 213.611 350.88 213.837C350.881 214.059 350.923 214.254 351.004 214.42C351.085 214.587 351.199 214.716 351.344 214.805C351.49 214.894 351.653 214.938 351.833 214.937C352.052 214.936 352.238 214.882 352.392 214.774C352.549 214.667 352.664 214.522 352.737 214.338L353.452 214.334C353.364 214.711 353.181 215.01 352.902 215.23C352.623 215.451 352.271 215.562 351.846 215.565C351.521 215.567 351.233 215.496 350.981 215.353C350.732 215.206 350.537 215.001 350.397 214.738C350.261 214.475 350.191 214.176 350.189 213.841C350.187 213.503 350.253 213.201 350.387 212.937C350.523 212.672 350.715 212.466 350.962 212.32C351.209 212.17 351.497 212.095 351.826 212.093ZM356.514 212.051C356.832 212.049 357.121 212.121 357.379 212.268C357.641 212.414 357.847 212.621 357.996 212.887C358.149 213.15 358.227 213.449 358.229 213.784C358.231 214.119 358.157 214.42 358.007 214.688C357.861 214.956 357.657 215.165 357.398 215.315C357.141 215.464 356.853 215.54 356.534 215.542C356.216 215.544 355.926 215.472 355.664 215.325C355.405 215.178 355.2 214.972 355.047 214.706C354.897 214.439 354.821 214.139 354.819 213.804C354.817 213.469 354.89 213.169 355.036 212.904C355.186 212.636 355.389 212.427 355.646 212.278C355.906 212.128 356.195 212.052 356.514 212.051ZM356.517 212.678C356.318 212.68 356.143 212.726 355.992 212.817C355.841 212.908 355.723 213.039 355.637 213.21C355.554 213.378 355.513 213.574 355.515 213.8C355.516 214.025 355.559 214.223 355.644 214.393C355.732 214.56 355.852 214.688 356.003 214.777C356.155 214.867 356.331 214.911 356.531 214.909C356.73 214.908 356.905 214.862 357.056 214.771C357.207 214.68 357.324 214.551 357.406 214.383C357.492 214.212 357.535 214.013 357.533 213.788C357.532 213.563 357.487 213.366 357.399 213.2C357.315 213.029 357.196 212.9 357.045 212.81C356.893 212.721 356.717 212.677 356.517 212.678ZM362.605 215.472L361.924 215.477L360.384 213.167L360.398 215.485L359.717 215.49L359.696 212.08L360.377 212.076L361.917 214.404L361.903 212.067L362.584 212.063L362.605 215.472ZM366.523 214.517C366.524 214.691 366.482 214.852 366.396 215.001C366.31 215.146 366.182 215.265 366.012 215.356C365.841 215.444 365.634 215.488 365.389 215.49C365.148 215.491 364.932 215.452 364.742 215.373C364.551 215.29 364.397 215.172 364.281 215.018C364.167 214.864 364.102 214.685 364.084 214.479L364.809 214.474C364.826 214.613 364.881 214.728 364.975 214.821C365.072 214.911 365.199 214.955 365.357 214.954C365.499 214.953 365.606 214.916 365.68 214.841C365.757 214.763 365.795 214.665 365.794 214.546C365.794 214.44 365.762 214.353 365.701 214.286C365.639 214.215 365.562 214.159 365.468 214.118C365.374 214.077 365.245 214.029 365.081 213.975C364.868 213.906 364.694 213.838 364.558 213.771C364.422 213.701 364.306 213.6 364.209 213.469C364.114 213.337 364.067 213.165 364.065 212.953C364.064 212.66 364.167 212.429 364.375 212.26C364.587 212.088 364.866 212.001 365.214 211.999C365.575 211.997 365.862 212.082 366.075 212.255C366.292 212.428 366.416 212.659 366.446 212.948L365.712 212.953C365.692 212.83 365.64 212.731 365.556 212.654C365.472 212.574 365.357 212.535 365.212 212.535C365.087 212.536 364.986 212.571 364.909 212.639C364.832 212.703 364.794 212.799 364.795 212.924C364.795 213.024 364.825 213.108 364.883 213.175C364.944 213.239 365.02 213.291 365.111 213.333C365.204 213.374 365.33 213.42 365.488 213.471C365.708 213.547 365.885 213.618 366.021 213.685C366.16 213.752 366.278 213.852 366.375 213.987C366.473 214.122 366.522 214.298 366.523 214.517ZM368.633 212.027L368.645 214.027C368.646 214.294 368.705 214.495 368.822 214.629C368.942 214.761 369.113 214.826 369.335 214.824C369.554 214.823 369.721 214.756 369.836 214.623C369.955 214.487 370.013 214.286 370.011 214.019L369.999 212.019L370.675 212.015L370.687 214.015C370.689 214.33 370.631 214.598 370.513 214.817C370.399 215.034 370.237 215.196 370.029 215.303C369.823 215.411 369.588 215.465 369.325 215.467C368.916 215.469 368.588 215.349 368.342 215.105C368.096 214.862 367.971 214.504 367.969 214.031L367.957 212.031L368.633 212.027ZM375.913 212.023L375.934 215.394L375.258 215.398L375.243 213.046L374.393 215.403L373.804 215.406L372.926 213.069L372.94 215.412L372.259 215.416L372.238 212.045L373.064 212.04L374.103 214.569L375.092 212.028L375.913 212.023ZM378.18 212.512L378.185 213.396L379.392 213.389L379.395 213.91L378.188 213.917L378.194 214.835L379.546 214.827L379.549 215.373L377.516 215.385L377.496 211.975L379.529 211.963L379.532 212.504L378.18 212.512ZM382.796 215.353L381.991 214.03L381.692 214.032L381.7 215.36L381.019 215.364L380.999 211.955L382.298 211.947C382.694 211.945 382.995 212.039 383.202 212.231C383.413 212.423 383.519 212.677 383.521 212.992C383.522 213.25 383.451 213.466 383.308 213.641C383.167 213.816 382.962 213.933 382.691 213.992L383.55 215.349L382.796 215.353ZM381.689 213.563L382.249 213.56C382.639 213.558 382.833 213.384 382.831 213.04C382.83 212.876 382.781 212.749 382.683 212.659C382.59 212.567 382.443 212.521 382.243 212.522L381.683 212.525L381.689 213.563Z" fill="#245FD3"/>
<path d="M350.413 202.568L342.98 207.941L389.638 207.667L395.322 202.304L350.413 202.568Z" fill="#EEEEEE"/>
<path d="M395.321 202.304L389.637 207.667L389.715 220.641L395.398 215.163L395.321 202.304Z" fill="#E9E9E9"/>
<path d="M418.733 210.452C372.725 222.685 330.867 215.549 315.689 210.452C321.173 221.866 339.43 244.695 368.593 244.695C397.756 244.695 414.171 221.866 418.733 210.452Z" fill="#52B03B"/>
<path d="M375.152 88.8664L375.875 91.0358L318.079 211.34L316.273 210.67L375.152 88.8664Z" fill="#B5B3C4"/>
<path d="M375.154 88.6152L374.432 90.7739L415.842 211.213L417.768 210.731L375.154 88.6152Z" fill="#B5B3C4"/>
<path d="M0 126.806C14.7205 122.333 56.3242 116.069 103.044 126.806C84.9448 133.517 35.7154 139.748 0 126.806Z" fill="#183C84"/>
<rect width="46.6588" height="12.9748" transform="matrix(0.999983 -0.005894 0.00597579 0.999982 27.5117 124.296)" fill="#F6F6F6"/>
<path d="M39.3482 128.484C39.7732 128.482 40.1264 128.589 40.4078 128.807C40.6892 129.024 40.8761 129.321 40.9685 129.697L40.2538 129.701C40.1786 129.518 40.0619 129.374 39.9035 129.268C39.7483 129.163 39.5613 129.111 39.3423 129.112C39.162 129.113 38.9997 129.159 38.8554 129.25C38.7111 129.341 38.5991 129.471 38.5197 129.639C38.4402 129.807 38.4011 130.003 38.4025 130.229C38.4038 130.451 38.4452 130.645 38.5267 130.812C38.6082 130.979 38.7216 131.107 38.867 131.196C39.0124 131.286 39.1753 131.33 39.3556 131.329C39.5745 131.328 39.7609 131.273 39.9148 131.166C40.0719 131.059 40.187 130.913 40.2599 130.729L40.9746 130.725C40.8867 131.102 40.7034 131.401 40.4246 131.622C40.1458 131.843 39.794 131.954 39.369 131.957C39.0438 131.958 38.7553 131.888 38.5033 131.744C38.2545 131.598 38.0601 131.393 37.9201 131.13C37.7833 130.866 37.7139 130.567 37.7119 130.233C37.7099 129.895 37.7757 129.593 37.9093 129.328C38.0462 129.064 38.2381 128.858 38.4851 128.712C38.7322 128.562 39.0199 128.486 39.3482 128.484ZM44.0363 128.442C44.355 128.44 44.6436 128.513 44.902 128.659C45.1637 128.806 45.3694 129.012 45.5191 129.279C45.6719 129.542 45.7494 129.841 45.7514 130.176C45.7534 130.51 45.6795 130.812 45.5298 131.08C45.3833 131.348 45.1801 131.557 44.9202 131.707C44.6636 131.856 44.3759 131.932 44.0571 131.934C43.7384 131.936 43.4482 131.863 43.1866 131.717C42.9281 131.57 42.7224 131.364 42.5695 131.097C42.4198 130.831 42.344 130.53 42.342 130.196C42.34 129.861 42.4122 129.561 42.5588 129.296C42.7085 129.028 42.9117 128.819 43.1683 128.67C43.4282 128.52 43.7175 128.444 44.0363 128.442ZM44.04 129.07C43.8404 129.071 43.6652 129.117 43.5145 129.208C43.3637 129.299 43.2453 129.431 43.1594 129.602C43.0767 129.77 43.036 129.966 43.0374 130.192C43.0387 130.417 43.0818 130.615 43.1665 130.785C43.2544 130.952 43.3743 131.08 43.5262 131.169C43.678 131.258 43.8538 131.302 44.0534 131.301C44.253 131.3 44.4282 131.254 44.5789 131.163C44.7297 131.072 44.8464 130.942 44.9292 130.774C45.0151 130.603 45.0573 130.405 45.056 130.18C45.0546 129.954 45.01 129.758 44.9221 129.591C44.8374 129.421 44.7191 129.291 44.5672 129.202C44.4154 129.113 44.2396 129.069 44.04 129.07ZM50.8944 128.489L50.9146 131.86L50.2385 131.864L50.2244 129.512L49.3741 131.869L48.7849 131.872L47.9065 129.535L47.9205 131.877L47.2396 131.881L47.2194 128.51L48.0452 128.506L49.0841 131.035L50.0735 128.494L50.8944 128.489ZM53.1703 130.581L53.1779 131.846L52.4969 131.85L52.4766 128.441L53.7177 128.434C54.1201 128.431 54.4233 128.526 54.6273 128.718C54.8345 128.91 54.9391 129.172 54.9411 129.503C54.943 129.828 54.8383 130.088 54.627 130.283C54.4189 130.477 54.12 130.575 53.7305 130.578L53.1703 130.581ZM53.6548 130.032C54.054 130.03 54.2526 129.855 54.2505 129.507C54.2495 129.337 54.202 129.207 54.1081 129.117C54.0142 129.027 53.861 128.983 53.6485 128.984L53.1608 128.987L53.167 130.035L53.6548 130.032ZM58.4356 131.129L57.0689 131.138L56.8316 131.825L56.112 131.829L57.3474 128.451L58.1249 128.446L59.3958 131.81L58.6763 131.814L58.4356 131.129ZM58.249 130.614L57.7381 129.178L57.2445 130.62L58.249 130.614ZM63.617 131.785L62.9361 131.789L61.3963 129.48L61.4101 131.798L60.7292 131.802L60.7088 128.392L61.3897 128.388L62.9297 130.717L62.9158 128.379L63.5967 128.375L63.617 131.785ZM67.9264 128.35L66.7855 130.573L66.7926 131.766L66.1069 131.77L66.0998 130.577L64.9275 128.367L65.7098 128.363L66.4431 129.851L67.1586 128.354L67.9264 128.35Z" fill="#245FD3"/>
<path d="M34.7259 118.922L27.2926 124.295L73.9506 124.021L79.6343 118.658L34.7259 118.922Z" fill="#EEEEEE"/>
<path d="M79.6375 118.659L73.9538 124.021L74.0316 136.996L79.7146 131.517L79.6375 118.659Z" fill="#E9E9E9"/>
<path d="M103.044 126.807C57.036 139.04 15.178 131.904 0 126.807C5.48339 138.221 23.7409 161.049 52.9037 161.049C82.0666 161.049 98.4817 138.221 103.044 126.807Z" fill="#245FD3"/>
<path d="M59.4643 5.22094L60.1875 7.39026L2.39112 127.695L0.585233 127.025L59.4643 5.22094Z" fill="#B5B3C4"/>
<path d="M59.4648 4.96973L58.7424 7.12843L100.153 127.567L102.079 127.086L59.4648 4.96973Z" fill="#B5B3C4"/>
<rect width="328.438" height="5.79604" transform="matrix(0.965783 0.25935 -0.258289 0.966068 58.9766 4.21338)" fill="url(#paint4_linear)"/>
<ellipse cx="209.104" cy="46.7045" rx="15.4536" ry="15.4584" fill="url(#paint5_linear)"/>
<defs>
<linearGradient id="paint0_linear" x1="209.106" y1="54.4346" x2="209.106" y2="266.987" gradientUnits="userSpaceOnUse">
<stop stop-color="#4139A0"/>
<stop offset="1" stop-color="#245FD3"/>
</linearGradient>
<linearGradient id="paint1_linear" x1="208.617" y1="266.987" x2="208.617" y2="279.547" gradientUnits="userSpaceOnUse">
<stop stop-color="#2959CB"/>
<stop offset="1" stop-color="#3A44AF"/>
</linearGradient>
<linearGradient id="paint2_linear" x1="161.966" y1="279.547" x2="162.598" y2="296.513" gradientUnits="userSpaceOnUse">
<stop stop-color="#245FD3"/>
<stop offset="1" stop-color="#4139A0"/>
</linearGradient>
<linearGradient id="paint3_linear" x1="149.24" y1="292.106" x2="149.738" y2="309.081" gradientUnits="userSpaceOnUse">
<stop stop-color="#245FD3"/>
<stop offset="1" stop-color="#4139A0"/>
</linearGradient>
<linearGradient id="paint4_linear" x1="53.8844" y1="-2.50922e-08" x2="53.9414" y2="7.83972" gradientUnits="userSpaceOnUse">
<stop stop-color="#245FD3"/>
<stop offset="1" stop-color="#4139A0"/>
</linearGradient>
<linearGradient id="paint5_linear" x1="198.721" y1="31.2461" x2="213.458" y2="66.9904" gradientUnits="userSpaceOnUse">
<stop stop-color="#245FD3"/>
<stop offset="1" stop-color="#4139A0"/>
</linearGradient>
</defs>
</svg>
